<svg width="162" height="25" viewBox="0 0 162 25" fill="none" xmlns="http://www.w3.org/2000/svg">
<g clip-path="url(#clip0_1_303)">
<path d="M9.88418 14.9324H12.9736C13.0662 14.9324 13.1408 15.007 13.1408 15.0996V18.189C13.1408 18.2816 13.0662 18.3562 12.9736 18.3562H9.88418C9.79156 18.3562 9.71699 18.2816 9.71699 18.189V15.0996C9.71699 15.007 9.79156 14.9324 9.88418 14.9324ZM5.02644 14.9324H8.11582C8.20844 14.9324 8.28301 15.007 8.28301 15.0996V18.189C8.28301 18.2816 8.20844 18.3562 8.11582 18.3562H5.02644C4.93382 18.3562 4.85925 18.2816 4.85925 18.189V15.0996C4.85925 15.007 4.93382 14.9324 5.02644 14.9324ZM0.167197 14.9324H3.25657C3.3492 14.9324 3.42377 15.007 3.42377 15.0996V18.189C3.42377 18.2816 3.3492 18.3562 3.25657 18.3562H0.167197C0.0745697 18.3562 0 18.2816 0 18.189V15.0996C0 15.007 0.0745697 14.9324 0.167197 14.9324ZM14.7434 14.9324H17.8328C17.9254 14.9324 18 15.007 18 15.0996V18.189C18 18.2816 17.9254 18.3562 17.8328 18.3562H14.7434C14.6508 18.3562 14.5762 18.2816 14.5762 18.189V15.0996C14.5762 15.007 14.6508 14.9324 14.7434 14.9324ZM0.167197 10.0732H3.25657C3.3492 10.0732 3.42377 10.1477 3.42377 10.2404V13.3297C3.42377 13.4224 3.3492 13.4969 3.25657 13.4969H0.167197C0.0745697 13.4969 0 13.4224 0 13.3297V10.2404C0 10.1477 0.0745697 10.0732 0.167197 10.0732ZM0.167197 5.21542H3.25657C3.3492 5.21542 3.42377 5.28999 3.42377 5.38261V8.47199C3.42377 8.56461 3.3492 8.63918 3.25657 8.63918H0.167197C0.0745697 8.63918 0 8.56461 0 8.47199V5.38261C0 5.28999 0.0745697 5.21542 0.167197 5.21542ZM0.167197 0.356171H3.25657C3.3492 0.356171 3.42377 0.43074 3.42377 0.523367V3.61274C3.42377 3.70537 3.3492 3.77994 3.25657 3.77994H0.167197C0.0745697 3.77994 0 3.70537 0 3.61274V0.523367C0 0.43074 0.0745697 0.356171 0.167197 0.356171ZM5.02644 10.0732H8.11582C8.20844 10.0732 8.28301 10.1477 8.28301 10.2404V13.3297C8.28301 13.4224 8.20844 13.4969 8.11582 13.4969H5.02644C4.93382 13.4969 4.85925 13.4224 4.85925 13.3297V10.2404C4.85925 10.1477 4.93382 10.0732 5.02644 10.0732ZM5.02644 0.356171H8.11582C8.20844 0.356171 8.28301 0.43074 8.28301 0.523367V3.61274C8.28301 3.70537 8.20844 3.77994 8.11582 3.77994H5.02644C4.93382 3.77994 4.85925 3.70537 4.85925 3.61274V0.523367C4.85925 0.43074 4.93382 0.356171 5.02644 0.356171ZM9.88418 10.0732H12.9736C13.0662 10.0732 13.1408 10.1477 13.1408 10.2404V13.3297C13.1408 13.4224 13.0662 13.4969 12.9736 13.4969H9.88418C9.79156 13.4969 9.71699 13.4224 9.71699 13.3297V10.2404C9.71699 10.1477 9.79156 10.0732 9.88418 10.0732ZM9.88418 5.21542H12.9736C13.0662 5.21542 13.1408 5.28999 13.1408 5.38261V8.47199C13.1408 8.56461 13.0662 8.63918 12.9736 8.63918H9.88418C9.79156 8.63918 9.71699 8.56461 9.71699 8.47199V5.38261C9.71699 5.28999 9.79156 5.21542 9.88418 5.21542ZM9.88418 0.356171H12.9736C13.0662 0.356171 13.1408 0.43074 13.1408 0.523367V3.61274C13.1408 3.70537 13.0662 3.77994 12.9736 3.77994H9.88418C9.79156 3.77994 9.71699 3.70537 9.71699 3.61274V0.523367C9.71699 0.43074 9.79156 0.356171 9.88418 0.356171ZM14.7434 10.0732H17.8328C17.9254 10.0732 18 10.1477 18 10.2404V13.3297C18 13.4224 17.9254 13.4969 17.8328 13.4969H14.7434C14.6508 13.4969 14.5762 13.4224 14.5762 13.3297V10.2404C14.5762 10.1477 14.6508 10.0732 14.7434 10.0732ZM14.7434 5.21542H17.8328C17.9254 5.21542 18 5.28999 18 5.38261V8.47199C18 8.56461 17.9254 8.63918 17.8328 8.63918H14.7434C14.6508 8.63918 14.5762 8.56461 14.5762 8.47199V5.38261C14.5762 5.28999 14.6508 5.21542 14.7434 5.21542ZM14.7434 0.356171H17.8328C17.9254 0.356171 18 0.43074 18 0.523367V3.61274C18 3.70537 17.9254 3.77994 17.8328 3.77994H14.7434C14.6508 3.77994 14.5762 3.70537 14.5762 3.61274V0.523367C14.5762 0.43074 14.6508 0.356171 14.7434 0.356171Z" fill="#64726f"/>
<path d="M82.6242 0.356171H79.3758C79.2787 0.356171 79.2 0.43488 79.2 0.531974V3.78037C79.2 3.87746 79.2787 3.95617 79.3758 3.95617H82.6242C82.7213 3.95617 82.8 3.87746 82.8 3.78037V0.531974C82.8 0.43488 82.7213 0.356171 82.6242 0.356171Z" fill="#64726f"/>
<path d="M110.271 5.61986H107.324C107.28 5.61986 107.238 5.6376 107.206 5.66923C107.175 5.70085 107.157 5.7438 107.156 5.78873V7.27199C106.407 6.05495 105.078 5.26388 103.274 5.26388C100.043 5.26388 97.9716 8.25019 97.9716 12.2619C97.9716 16.1898 100.143 18.8856 103.375 18.8856C105.152 18.8856 106.332 18.0595 107.081 16.8714V19.0164C107.081 20.7963 106.155 21.7365 104.226 21.7365C102.718 21.7365 101.988 21.0215 101.686 20.2608C101.674 20.23 101.653 20.2033 101.627 20.1842C101.6 20.165 101.568 20.1541 101.536 20.1528H98.4617C98.4373 20.1527 98.4132 20.158 98.391 20.1683C98.3689 20.1787 98.3492 20.1937 98.3334 20.2126C98.3175 20.2314 98.3059 20.2535 98.2994 20.2773C98.2928 20.3012 98.2914 20.3262 98.2953 20.3506C98.7285 22.774 100.861 24.3562 104.276 24.3562C106.179 24.3562 107.832 23.8998 108.91 22.882C109.862 21.9921 110.439 20.7522 110.439 18.9145V5.78873C110.438 5.7438 110.421 5.70085 110.389 5.66923C110.358 5.6376 110.315 5.61986 110.271 5.61986ZM104.145 15.9921C102.333 15.9921 101.428 14.3704 101.428 12.0732C101.428 9.67869 102.357 8.06003 104.025 8.06003C105.836 8.06003 106.956 9.73345 106.956 12.0002C106.956 14.2973 106.194 15.9921 104.145 15.9921ZM152.682 17.2639V18.7213C152.682 18.7665 152.664 18.8098 152.633 18.8418C152.601 18.8737 152.558 18.8917 152.514 18.8917H149.567C149.474 18.8917 149.399 18.8156 149.399 18.4931V0.66043C149.399 0.795826 149.474 0.719761 149.567 0.719761H152.64C152.684 0.719761 152.726 0.737552 152.757 0.76922C152.789 0.800888 152.806 0.843839 152.806 0.888625V7.20201C153.508 6.1082 154.686 5.26996 156.463 5.26996C159.695 5.26996 162 8.20607 162 12.2679C162 16.488 159.795 19.2659 156.564 19.2659C154.761 19.272 153.433 18.484 152.682 17.2639ZM158.544 12.2679C158.544 9.85211 157.592 8.06003 155.687 8.06003C153.533 8.06003 152.731 9.92818 152.731 12.344C152.731 14.734 153.909 16.3739 155.813 16.3739C157.566 16.3739 158.544 14.7857 158.544 12.2679ZM144.068 18.8917C144.024 18.8913 143.981 18.8731 143.95 18.8412C143.919 18.8093 143.902 18.7662 143.902 18.7213V17.3658C143.025 18.5615 141.953 19.2477 140.144 19.2477C137.296 19.2477 135.685 17.3917 135.685 14.5438V5.78873C135.685 5.74394 135.703 5.70099 135.734 5.66932C135.765 5.63765 135.807 5.61986 135.851 5.61986H138.9C138.922 5.61966 138.944 5.62388 138.964 5.63228C138.985 5.64067 139.003 5.65308 139.019 5.66878C139.034 5.68448 139.047 5.70316 139.055 5.72375C139.064 5.74434 139.068 5.76642 139.068 5.78873V13.9581C139.068 15.4794 139.744 16.3237 141.198 16.3237C142.8 16.3237 143.777 15.1067 143.777 13.3739V5.78873C143.777 5.76642 143.782 5.74434 143.79 5.72375C143.799 5.70316 143.811 5.68448 143.827 5.66878C143.842 5.65308 143.861 5.64067 143.881 5.63228C143.901 5.62388 143.923 5.61966 143.945 5.61986H147.012C147.056 5.61986 147.098 5.63765 147.129 5.66932C147.161 5.70099 147.178 5.74394 147.178 5.78873V18.7198C147.178 18.7647 147.161 18.8078 147.129 18.8397C147.098 18.8716 147.056 18.8897 147.012 18.8901L144.068 18.8917ZM130.225 0.712154H133.297C133.342 0.712153 133.384 0.729895 133.416 0.76152C133.447 0.793145 133.465 0.836094 133.465 0.881019V18.7213C133.465 18.7665 133.448 18.8098 133.416 18.8418C133.385 18.8737 133.342 18.8917 133.297 18.8917H130.225C130.181 18.8913 130.138 18.8731 130.107 18.8412C130.076 18.8093 130.058 18.7662 130.058 18.7213V0.881019C130.058 0.836233 130.076 0.793282 130.107 0.761614C130.138 0.729945 130.181 0.712154 130.225 0.712154ZM112.15 9.86581C112.15 4.47585 115.457 0.356171 120.742 0.356171C125.069 0.356171 127.659 2.92716 128.109 6.28923C128.112 6.31333 128.109 6.3378 128.102 6.36099C128.095 6.38419 128.083 6.40558 128.067 6.42374C128.052 6.44189 128.032 6.45638 128.01 6.46624C127.988 6.4761 127.965 6.48111 127.941 6.48092H124.66C124.622 6.48036 124.585 6.46665 124.555 6.44204C124.526 6.41743 124.506 6.38339 124.498 6.34552C124.131 4.59146 122.794 3.45506 120.742 3.45506C117.435 3.45506 115.857 6.2512 115.857 9.86276C115.857 13.5747 117.761 16.2446 120.767 16.2446C122.842 16.2446 124.322 15.0124 124.604 13.1853C124.61 13.1452 124.63 13.1087 124.66 13.0822C124.691 13.0557 124.729 13.041 124.769 13.0408H127.999C128.022 13.0407 128.045 13.0455 128.067 13.0549C128.088 13.0643 128.107 13.0781 128.123 13.0954C128.139 13.1127 128.151 13.1331 128.158 13.1554C128.166 13.1777 128.169 13.2013 128.167 13.2248C128.03 14.7918 127.331 16.2533 126.203 17.3323C124.976 18.5022 123.246 19.2644 120.767 19.2644C115.731 19.272 112.15 15.3318 112.15 9.86581ZM87.943 7.39978C88.8198 6.00019 90.0728 5.26996 91.8264 5.26996C94.4808 5.26996 96.2599 7.30394 96.2599 10.1503V18.7274C96.2599 18.7726 96.2422 18.8159 96.2108 18.8478C96.1793 18.8798 96.1366 18.8978 96.0921 18.8978H93.0195C92.9752 18.8974 92.9329 18.8792 92.9017 18.8473C92.8706 18.8154 92.8531 18.7723 92.8531 18.7274V10.6645C92.8531 9.26642 92.0512 8.27453 90.6229 8.27453C89.124 8.27453 88.0179 9.49157 88.0179 11.2745V18.7289C88.0179 18.7738 88.0004 18.8169 87.9692 18.8488C87.9381 18.8807 87.8958 18.8989 87.8515 18.8993H84.7789C84.7344 18.8993 84.6917 18.8813 84.6602 18.8494C84.6287 18.8174 84.6111 18.7741 84.6111 18.7289V5.79785C84.611 5.77555 84.6154 5.75347 84.6239 5.73288C84.6323 5.71229 84.6447 5.69361 84.6603 5.67791C84.6759 5.66221 84.6944 5.6498 84.7148 5.64141C84.7351 5.63301 84.7569 5.62879 84.7789 5.62899H87.7766C87.8207 5.62899 87.863 5.64678 87.8942 5.67845C87.9254 5.71012 87.943 5.75307 87.943 5.79785V7.39978ZM79.1673 5.61986H82.2399C82.2623 5.61904 82.2845 5.62281 82.3054 5.63093C82.3263 5.63905 82.3454 5.65136 82.3615 5.66712C82.3775 5.68288 82.3903 5.70177 82.3991 5.72267C82.4078 5.74356 82.4123 5.76603 82.4123 5.78873V18.7198C82.4123 18.7421 82.4079 18.7643 82.3995 18.785C82.3911 18.8056 82.3787 18.8244 82.3631 18.8402C82.3475 18.8561 82.329 18.8686 82.3086 18.8772C82.2883 18.8857 82.2665 18.8901 82.2444 18.8901H79.1718C79.1276 18.8897 79.0852 18.8716 79.0541 18.8397C79.0229 18.8078 79.0054 18.7647 79.0054 18.7198V5.78873C79.0054 5.74472 79.0223 5.70245 79.0526 5.67091C79.0828 5.63937 79.124 5.62105 79.1673 5.61986ZM64.1835 12.2679C64.1835 8.19999 66.4633 5.26996 69.6693 5.26996C71.4678 5.26996 72.6759 6.1082 73.3773 7.20201V0.881019C73.3773 0.836233 73.3949 0.793282 73.4261 0.761614C73.4573 0.729945 73.4996 0.712154 73.5437 0.712154H76.6163C76.7092 0.712154 76.7842 0.788219 76.7842 0.652824V18.4931C76.7842 18.8156 76.7092 18.8917 76.6163 18.8917H73.6696C73.6251 18.8917 73.5824 18.8737 73.5509 18.8418C73.5194 18.8098 73.5018 18.7665 73.5018 18.7213V17.1878C72.7523 18.4338 71.4229 19.272 69.6198 19.272C66.3883 19.272 64.1835 16.4819 64.1835 12.2679ZM73.4523 12.344C73.4523 9.85212 72.6504 8.06003 70.4711 8.06003C68.5931 8.06003 67.6398 9.85211 67.6398 12.2679C67.6398 14.7857 68.6171 16.3754 70.3707 16.3754C72.4001 16.3739 73.4523 14.734 73.4523 12.344ZM54.1549 7.39978C55.0317 6.00019 56.2847 5.26996 58.0384 5.26996C60.6928 5.26996 62.4719 7.30394 62.4719 10.1503V18.7274C62.4719 18.7723 62.4544 18.8154 62.4232 18.8473C62.3921 18.8792 62.3498 18.8974 62.3055 18.8978H59.2329C59.1884 18.8978 59.1457 18.8798 59.1142 18.8478C59.0827 18.8159 59.0651 18.7726 59.0651 18.7274V10.6645C59.0651 9.26642 58.2632 8.27453 56.8363 8.27453C55.333 8.26692 54.2343 9.48396 54.2343 11.2639V18.7182C54.2343 18.7634 54.2166 18.8068 54.1852 18.8387C54.1537 18.8707 54.111 18.8886 54.0665 18.8886H50.9939C50.9719 18.8886 50.9501 18.8842 50.9299 18.8756C50.9096 18.867 50.8912 18.8545 50.8757 18.8386C50.8602 18.8228 50.848 18.804 50.8397 18.7833C50.8315 18.7627 50.8273 18.7405 50.8275 18.7182V5.78721C50.8273 5.76497 50.8315 5.74292 50.8398 5.72234C50.848 5.70177 50.8603 5.68307 50.8758 5.66735C50.8913 5.65163 50.9097 5.6392 50.93 5.63078C50.9502 5.62237 50.972 5.61814 50.9939 5.61834H53.9915C54.0134 5.61814 54.0352 5.62237 54.0554 5.63078C54.0757 5.6392 54.0941 5.65163 54.1096 5.66735C54.1251 5.68307 54.1373 5.70177 54.1456 5.72234C54.1539 5.74292 54.1581 5.76497 54.1579 5.78721L54.1549 7.39978ZM36.4373 12.2421C36.4373 8.37798 39.0167 5.26388 42.7743 5.26388C46.8571 5.26388 49.0574 8.50272 49.1113 13.0605C49.1117 13.0832 49.1077 13.1056 49.0994 13.1267C49.0912 13.1477 49.0789 13.1668 49.0632 13.183C49.0476 13.1991 49.029 13.212 49.0084 13.2207C48.9879 13.2295 48.9658 13.234 48.9435 13.234H39.8006C40.0509 15.2421 41.1496 16.6036 43.0816 16.6036C44.3616 16.6036 45.129 16.0362 45.5202 15.1067C45.5321 15.0761 45.5527 15.0497 45.5793 15.031C45.606 15.0123 45.6376 15.0021 45.67 15.0017H48.7052C48.7305 15.0015 48.7555 15.0071 48.7783 15.0181C48.8012 15.0292 48.8212 15.0453 48.837 15.0654C48.8527 15.0855 48.8638 15.109 48.8692 15.1341C48.8747 15.1592 48.8745 15.1852 48.8685 15.2101C48.317 17.4312 46.3115 19.272 43.1055 19.272C38.8414 19.272 36.4373 16.132 36.4373 12.2421ZM39.8456 10.844H45.5561C45.4572 9.19187 44.3795 7.93224 42.8268 7.93224C41.0207 7.93224 40.1454 9.14015 39.8456 10.844ZM24.1664 0.712154H27.4638C27.5079 0.712154 27.5502 0.729945 27.5814 0.761614C27.6126 0.793282 27.6302 0.836233 27.6302 0.881019V15.8141H35.4885C35.5105 15.8141 35.5322 15.8185 35.5525 15.8271C35.5728 15.8357 35.5912 15.8482 35.6067 15.8641C35.6222 15.8799 35.6344 15.8987 35.6426 15.9194C35.6509 15.94 35.6551 15.9622 35.6549 15.9845V18.7228C35.6551 18.7451 35.6509 18.7672 35.6426 18.7879C35.6344 18.8086 35.6222 18.8274 35.6067 18.8432C35.5912 18.859 35.5728 18.8716 35.5525 18.8802C35.5322 18.8888 35.5105 18.8932 35.4885 18.8932H24.1664C24.1221 18.8928 24.0798 18.8747 24.0486 18.8428C24.0175 18.8108 24 18.7677 24 18.7228V0.881019C24 0.836233 24.0175 0.793282 24.0487 0.761614C24.0799 0.729945 24.1222 0.712154 24.1664 0.712154Z" fill="#64726f"/>
</g>
<defs>
<clipPath id="clip0_1_303">
<rect width="162" height="24" fill="#64726f" transform="translate(0 0.356171)"/>
</clipPath>
</defs>
</svg>
