<svg width="72" height="25" viewBox="0 0 72 25" fill="none" xmlns="http://www.w3.org/2000/svg">
<g clip-path="url(#clip0_1_338)">
<path d="M18.5624 16.2662C18.5624 16.4348 18.4456 16.4348 18.2134 16.4348H15.0714V18.9691H17.8644C18.0389 18.9691 18.0973 19.0256 18.0973 19.1948V19.5886C18.0973 19.7572 18.0389 19.8143 17.8638 19.8143H15.013V23.3618C15.013 23.5868 14.9546 23.5868 14.7801 23.5868H14.1405C13.9654 23.5868 13.907 23.5304 13.907 23.3053V15.816C13.907 15.6474 13.9654 15.591 14.1405 15.591H18.3295C18.4463 15.591 18.5047 15.6467 18.5047 15.7596V15.816L18.563 16.2662H18.5624ZM19.9589 17.1672C19.6099 17.1672 19.3771 16.9421 19.3771 16.6041C19.3771 16.2668 19.6683 16.0411 19.9589 16.0411C20.3079 16.0411 20.5991 16.2662 20.5991 16.6041C20.5991 16.9421 20.3079 17.1672 19.9589 17.1672ZM20.2502 23.5868H19.7261C19.5516 23.5868 19.4938 23.5304 19.4938 23.3618V18.2374C19.4938 18.0688 19.5522 18.0124 19.7261 18.0124H20.2502C20.4246 18.0124 20.4824 18.0681 20.4824 18.2374V23.3618C20.4824 23.4746 20.424 23.5868 20.2502 23.5868ZM26.8255 23.5868H26.2437C26.0685 23.5868 26.0102 23.5304 26.0102 23.3618V20.0958C26.0102 19.2506 25.7779 18.6883 24.8471 18.6883C24.323 18.6883 23.6251 18.9691 23.2177 19.3635V23.3618C23.2177 23.5304 23.1594 23.5868 22.9849 23.5868H22.403C22.2863 23.5868 22.1702 23.5304 22.1702 23.3618V18.2374C22.1702 18.0688 22.2285 18.0124 22.403 18.0124H22.9265C23.0432 18.0124 23.16 18.0681 23.16 18.2374V18.5747C23.6828 18.1246 24.4398 17.8995 25.1384 17.8995C26.5343 17.8995 27.0584 18.6876 27.0584 19.983V23.3618C27.0584 23.4746 27 23.5868 26.8249 23.5868H26.8255ZM33.7498 23.5868H33.2264C32.7023 23.5868 32.4694 23.1925 32.4694 22.7423C32.1788 23.2489 31.4225 23.6997 30.6662 23.6997C29.0368 23.6997 28.2798 22.3479 28.2798 20.8846C28.2798 18.9691 29.4441 17.8431 30.8407 17.8431C31.4225 17.8431 32.0621 18.0681 32.4694 18.5754V18.181C32.4694 18.0681 32.5862 18.0124 32.7029 18.0124H33.2264C33.3425 18.0124 33.4586 18.0681 33.4586 18.2374V22.2915C33.4586 22.573 33.4586 22.7423 33.517 22.7987C33.5754 22.8552 33.6337 22.911 33.7498 22.911H33.8082C33.925 22.911 33.9827 22.911 33.9827 23.0796V23.4746C33.9243 23.5304 33.8659 23.5868 33.7492 23.5868H33.7498ZM32.411 19.4764C32.2609 19.223 32.0483 19.0124 31.7936 18.8645C31.5389 18.7167 31.2506 18.6366 30.9561 18.6318C30.0253 18.6318 29.3267 19.4199 29.3267 20.7717C29.3267 22.0664 29.9085 22.8552 30.7816 22.8552C31.5379 22.8552 32.1782 22.2921 32.3526 21.6727V19.4764H32.411ZM39.7434 23.5868H39.1615C38.9864 23.5868 38.928 23.5304 38.928 23.3618V20.0958C38.928 19.2506 38.6958 18.6883 37.765 18.6883C37.2409 18.6883 36.5429 18.9691 36.1356 19.3635V23.3618C36.1356 23.5304 36.0772 23.5868 35.9027 23.5868H35.3209C35.2041 23.5868 35.088 23.5304 35.088 23.3618V18.2374C35.088 18.0688 35.1464 18.0124 35.3209 18.0124H35.8443C35.9611 18.0124 36.0778 18.0681 36.0778 18.2374V18.5747C36.6013 18.1246 37.3576 17.8995 38.0562 17.8995C39.4521 17.8995 39.9762 18.6876 39.9762 19.983V23.3618C39.9762 23.4746 39.9178 23.5868 39.7427 23.5868H39.7434ZM45.6201 23.3618C45.1067 23.5867 44.5519 23.7016 43.9914 23.6991C42.1291 23.6991 41.1983 22.5172 41.1983 20.7711C41.1983 19.082 42.2452 17.8431 44.0491 17.8431C44.5732 17.8431 45.155 17.9559 45.5624 18.181C45.6208 18.2374 45.6785 18.2374 45.6785 18.3497V18.4625L45.5617 18.8569C45.5617 18.9133 45.5033 18.9691 45.4456 18.9691C45.4456 18.9691 45.3872 18.9691 45.3289 18.9133C44.9485 18.7277 44.5307 18.6314 44.1075 18.6318C42.9438 18.6318 42.2458 19.4764 42.2458 20.7717C42.2458 21.9542 42.7693 22.9674 44.0491 22.9674C44.5732 22.9674 44.9799 22.8552 45.3872 22.6859H45.504C45.5624 22.6859 45.6208 22.7423 45.6208 22.7987L45.7369 23.136V23.2489C45.7369 23.3053 45.7369 23.3053 45.6201 23.3618ZM47.3663 17.1672C47.0167 17.1672 46.7844 16.9421 46.7844 16.6041C46.7844 16.2668 47.075 16.0411 47.3663 16.0411C47.7152 16.0411 48.0058 16.2662 48.0058 16.6041C47.9475 16.9421 47.6569 17.1672 47.3663 17.1672ZM47.6569 23.5868H47.1334C46.9583 23.5868 46.9005 23.5304 46.9005 23.3618V18.2374C46.9005 18.0688 46.9589 18.0124 47.1334 18.0124H47.6569C47.832 18.0124 47.8897 18.0681 47.8897 18.2374V23.3618C47.8314 23.4746 47.773 23.5868 47.6569 23.5868ZM54.6979 23.5868H54.1738C53.6504 23.5868 53.4175 23.1925 53.4175 22.7423C53.1269 23.2489 52.3699 23.6997 51.6143 23.6997C49.9842 23.6997 49.2279 22.3479 49.2279 20.8846C49.2279 18.9691 50.3916 17.8431 51.7881 17.8431C52.3699 17.8431 53.0102 18.0681 53.4175 18.5754V18.181C53.4175 18.0681 53.5343 18.0124 53.6504 18.0124H54.1738C54.2906 18.0124 54.4074 18.0681 54.4074 18.2374V22.2915C54.4074 22.573 54.4074 22.7423 54.4651 22.7987C54.5235 22.8552 54.5818 22.911 54.6402 22.911H54.6979C54.8147 22.911 54.8724 22.911 54.8724 23.0796V23.4746C54.8724 23.5304 54.8141 23.5868 54.6973 23.5868H54.6979ZM53.3014 19.4764C53.1513 19.223 52.9387 19.0124 52.684 18.8645C52.4293 18.7167 52.141 18.6366 51.8465 18.6318C50.9157 18.6318 50.2171 19.4199 50.2171 20.7717C50.2171 22.0664 50.7989 22.8552 51.672 22.8552C52.4283 22.8552 53.0685 22.2921 53.243 21.6727V19.4764H53.3014ZM56.7924 23.5868H56.2106C56.0938 23.5868 55.9777 23.5304 55.9777 23.3618V15.6467C55.9777 15.4781 56.0361 15.4217 56.1529 15.4217L56.7347 15.3652H56.7931C56.9092 15.3652 56.9669 15.4217 56.9669 15.5339V23.3053C57.0253 23.474 56.9669 23.5868 56.7924 23.5868ZM5.52843 12.6623C1.97838 12.6623 0 10.2416 0 6.52479C0 2.86447 2.15351 0.3302 5.64454 0.3302C9.3107 0.3302 11.1723 2.97669 11.1723 6.46836C11.1723 10.2973 8.84497 12.663 5.52843 12.663V12.6623ZM5.58681 2.63874C4.07351 2.63874 3.02595 3.93409 3.02595 6.46836C3.02595 9.17128 3.95676 10.3538 5.64454 10.3538C7.21557 10.3538 8.20476 9.11485 8.20476 6.46836C8.20476 3.76544 7.27395 2.63874 5.58616 2.63874H5.58681ZM20.3079 12.4372H18.6791C18.3295 12.4372 18.155 12.2686 18.155 11.9306V7.36934C18.155 6.63701 17.9805 6.18685 17.1658 6.18685C16.584 6.18685 15.8861 6.46836 15.3626 6.86209V11.9306C15.3626 12.2679 15.2458 12.4372 14.8969 12.4372H13.2675C12.9762 12.4372 12.8017 12.2686 12.8017 11.9871V4.66642C12.8017 4.32847 12.9185 4.15917 13.3252 4.15917H14.7801C15.0714 4.15917 15.2458 4.21561 15.2458 4.49712L15.3042 4.83506C16.0935 4.24533 17.0536 3.92903 18.0389 3.93409C19.9589 3.93409 20.832 5.11658 20.832 6.97496V11.9871C20.832 12.2686 20.7152 12.4372 20.3079 12.4372ZM30.1421 9.00263H25.1961C25.429 10.0723 26.4182 10.6917 27.4651 10.6917C28.2221 10.6917 28.9784 10.5231 29.677 10.2409C29.7347 10.1851 29.7931 10.1851 29.9092 10.1851C30.0843 10.1851 30.1421 10.2973 30.2004 10.4102C30.2588 10.6917 30.5494 11.4805 30.5494 11.7613C30.5494 11.9871 30.3743 12.0428 30.2004 12.1557C29.269 12.5501 28.0469 12.7187 27 12.7187C24.2069 12.7187 22.403 11.0297 22.403 8.32674C22.403 5.68025 24.2647 3.93409 27 3.93409C28.1053 3.93409 29.0951 4.32847 29.7347 5.00436C30.6078 5.90533 30.7823 7.08782 30.7823 8.27031V8.49539C30.7823 8.88977 30.6071 9.00198 30.1421 9.00198V9.00263ZM26.8255 5.8489C25.9524 5.8489 25.3706 6.52479 25.2545 7.3129H28.2221C28.2221 6.63701 27.7563 5.8489 26.8255 5.8489ZM45.4456 12.4372H43.7001C43.2344 12.4372 43.1183 12.2121 43.1183 11.7613L42.9431 5.90534H42.8854L40.2091 12.0999C40.0923 12.4372 39.8595 12.4937 39.6266 12.4937H38.987C38.6374 12.4937 38.4629 12.4372 38.2884 12.0993L35.2625 5.96112H35.2041L35.088 11.9871C35.088 12.4372 34.8551 12.493 34.5062 12.493H33.0519C32.6445 12.493 32.4694 12.3808 32.4694 11.9871V11.9306L32.9351 1.17474C32.9351 0.781011 33.168 0.611714 33.4586 0.611714H34.739C35.1464 0.611714 35.3209 0.724578 35.437 1.06252L39.3354 8.7769H39.3937L42.9444 1.06317C43.0612 0.78166 43.2934 0.612362 43.6424 0.612362H44.8644C45.2134 0.612362 45.3302 0.725227 45.3302 1.06317L45.912 11.9313V11.9877C45.912 12.325 45.7369 12.4379 45.4463 12.4379L45.4456 12.4372ZM56.0945 12.4372H55.163C54.1161 12.4372 53.7088 12.1557 53.4759 11.6491H53.4175C52.9524 12.1551 51.7888 12.6623 50.9741 12.6623C48.4132 12.6623 47.2495 10.6917 47.2495 8.4396C47.2495 5.39809 49.1695 3.87766 51.1479 3.87766C52.1377 3.87766 52.9524 4.32847 53.3014 4.83506L53.3598 4.44069C53.3598 4.27204 53.5343 4.10339 53.7665 4.10339H55.3382C55.5704 4.10339 55.7455 4.21561 55.7455 4.49712V10.4102C55.7455 10.5788 55.8039 10.6917 56.0361 10.6917H56.1529C56.3851 10.6917 56.5018 10.8039 56.5018 11.029V12.0428C56.5602 12.3244 56.3851 12.4372 56.0945 12.4372ZM53.1269 6.58058C52.8357 6.29906 52.2538 6.01755 51.672 6.01755C50.7989 6.01755 49.9842 6.69344 49.9842 8.27031C49.9842 9.34058 50.2761 10.5795 51.6136 10.5795C52.2538 10.5795 52.8941 10.1287 53.0685 9.84652V6.58123H53.1269V6.58058ZM59.3526 3.14534C58.6547 3.14534 57.8984 2.69517 57.8984 1.85063C57.8984 1.00609 58.5963 0.555281 59.3526 0.555281C60.0512 0.555281 60.7492 1.00609 60.7492 1.85063C60.8076 2.69517 60.0512 3.14598 59.3526 3.14598V3.14534ZM60.2257 12.4372H58.6547C58.3057 12.4372 58.1306 12.3244 58.1306 11.9306V4.60998C58.1306 4.27204 58.3641 4.15917 58.6547 4.15917H60.2257C60.5747 4.15917 60.7492 4.27204 60.7492 4.60998V11.9864C60.7492 12.3237 60.5747 12.4366 60.2257 12.4366V12.4372ZM70.4672 12.4372H68.8378C68.4889 12.4372 68.3137 12.2686 68.3137 11.9306V7.36934C68.3137 6.63701 68.1392 6.18685 67.3245 6.18685C66.7427 6.18685 66.0448 6.46836 65.5207 6.86209V11.9306C65.5207 12.2679 65.4045 12.4372 65.0556 12.4372H63.3678C63.0772 12.4372 62.9027 12.2686 62.9027 11.9871V4.66642C62.9027 4.32847 63.0188 4.15917 63.4262 4.15917H64.8811C65.1717 4.15917 65.3462 4.21561 65.3462 4.49712L65.4045 4.83506C66.2239 4.21112 67.2261 3.87462 68.256 3.87766C70.176 3.87766 71.0491 5.06015 71.0491 6.91852V11.9306C70.9907 12.2679 70.8746 12.4372 70.4672 12.4372ZM58.597 23.5868C58.1312 23.5868 57.7239 23.1925 57.7239 22.7423C57.7239 22.2921 58.1312 21.8978 58.5963 21.8978C59.0621 21.8978 59.4694 22.2351 59.4694 22.7423C59.4694 23.2489 59.0621 23.5868 58.5963 23.5868H58.597ZM58.597 22.0664C58.189 22.0664 57.8984 22.3479 57.8984 22.7423C57.8984 23.1367 58.189 23.4182 58.5963 23.4182C59.0037 23.4182 59.2949 23.1367 59.2949 22.7423C59.2949 22.405 59.0037 22.0664 58.5963 22.0664H58.597ZM58.8876 23.1925H58.7708H58.7124L58.5386 22.911H58.4218V23.2489H58.3635V22.4044H58.5386C58.7131 22.4044 58.8292 22.4608 58.8292 22.6294C58.8292 22.7423 58.7708 22.7981 58.6547 22.8552L58.8876 23.1925C58.8876 23.1367 58.8876 23.1367 58.8876 23.1925ZM58.5386 22.4608H58.4802V22.7423H58.5386C58.6547 22.7423 58.7131 22.6859 58.7131 22.5737C58.7131 22.5172 58.6547 22.4608 58.5379 22.4608H58.5386Z" fill="#64726f"/>
</g>
<defs>
<clipPath id="clip0_1_338">
<rect width="71.3514" height="24" fill="#64726f" transform="translate(0 0.3302)"/>
</clipPath>
</defs>
</svg>
