<svg width="135" height="24" viewBox="0 0 135 24" fill="none" xmlns="http://www.w3.org/2000/svg">
<g clip-path="url(#clip0_1_225)">
<path d="M53.25 11.3128C53.25 17.2678 49.8535 20.26 44.5804 20.26C39.3074 20.26 36 17.2678 36 11.4842V0.0100098H39.5401V11.3422C39.5401 15.0445 41.4711 17.0376 44.6399 17.0376C47.8086 17.0376 49.7099 15.1571 49.7099 11.4842V0.0100098H53.25V11.3128Z" fill="#64726f"/>
<path d="M64.8946 19.8595C63.8791 19.8681 62.8769 19.636 61.9758 19.1835C61.0746 18.7309 60.3021 18.0717 59.7257 17.2637V24.01H56.25V4.8171H59.7257V7.27379C60.8529 5.73836 62.4418 4.51001 64.8946 4.51001C68.5044 4.51001 72 7.27379 72 12.1872C72 17.1006 68.5491 19.8595 64.8946 19.8595ZM64.0803 7.43693C61.7119 7.43693 59.6115 9.30824 59.6115 12.1824C59.6115 15.0565 61.692 16.9278 64.0803 16.9278C66.4686 16.9278 68.4399 15.1141 68.4399 12.1824C68.4399 9.25066 66.4537 7.43693 64.0803 7.43693Z" fill="#64726f"/>
<path d="M79.8961 20.26C77.5747 20.2255 75.3283 19.4271 73.5 17.9867L75.0449 15.6242C76.4546 16.7628 78.1887 17.4187 79.9945 17.4963C81.4705 17.4963 82.3413 16.8624 82.3413 15.852V15.7926C82.3413 14.6138 80.7374 14.2077 78.9662 13.6628C76.7325 13.0289 74.2429 12.1077 74.2429 9.20529V9.14586C74.2429 6.26331 76.6193 4.51001 79.6205 4.51001C81.5914 4.55312 83.51 5.15574 85.1556 6.24845L83.7829 8.72487C82.5095 7.8797 81.0393 7.38297 79.5172 7.28359C78.174 7.28359 77.4016 7.91756 77.4016 8.80907V8.8685C77.4016 9.96308 79.0351 10.4237 80.8063 10.9982C83.0104 11.6916 85.5 12.697 85.5 15.4558V15.5152C85.5049 18.6751 83.0449 20.26 79.8961 20.26Z" fill="#64726f"/>
<path d="M92.5555 15.284C92.5555 16.6258 93.2664 17.1714 94.475 17.1714C95.2452 17.1746 96.0048 16.9975 96.6891 16.6553V19.4864C95.7072 20.0193 94.5949 20.2859 93.4695 20.258C90.8391 20.258 88.9805 19.1423 88.9805 15.8345V7.85735H87V4.90832H89.0008V0.76001H92.5555V4.90832H96.75V7.85735H92.5555V15.284Z" fill="#64726f"/>
<path d="M109.1 19.9393V18.069C108.513 18.7838 107.774 19.3523 106.94 19.7312C106.106 20.1102 105.199 20.2897 104.287 20.256C101.472 20.256 99 18.6133 99 15.5653V15.5059C99 12.2254 101.559 10.6123 105.022 10.6123C106.416 10.5866 107.804 10.8007 109.129 11.2457V10.8696C109.129 8.76674 107.832 7.6188 105.472 7.6188C104.007 7.62469 102.559 7.94849 101.225 8.56882L100.296 5.77814C102.067 4.91508 104.009 4.48161 105.97 4.51145C110.362 4.51145 112.5 6.87165 112.5 10.9439V19.9393H109.1ZM109.187 13.5069C108.102 13.1006 106.956 12.8961 105.801 12.9033C103.663 12.9033 102.415 13.7939 102.415 15.3476V15.407C102.415 16.8468 103.682 17.6534 105.283 17.6534C107.532 17.6534 109.221 16.357 109.221 14.457V13.4921L109.187 13.5069Z" fill="#64726f"/>
<path d="M118.273 19.51H114.75V4.79411H118.273V8.1101C119.24 5.90583 121.027 4.40117 123.75 4.51618V8.08614H123.544C120.438 8.08614 118.273 10.0029 118.273 13.9131V19.51Z" fill="#64726f"/>
<path d="M130.817 15.284C130.817 16.6258 131.529 17.1714 132.741 17.1714C133.512 17.1746 134.274 16.9975 134.959 16.6553V19.4864C133.975 20.0193 132.861 20.2859 131.733 20.258C129.097 20.258 127.235 19.1423 127.235 15.8345V7.85735H125.25V4.90832H127.235V0.76001H130.797V4.90832H135V7.85735H130.797L130.817 15.284Z" fill="#64726f"/>
<path d="M3.89487 8.95087L1.54849 11.2816C0.556947 12.2697 0 13.6092 0 15.0058C0 16.4024 0.556947 17.7419 1.54849 18.73C2.54181 19.7101 3.88384 20.26 5.28248 20.26C6.68113 20.26 8.02316 19.7101 9.01648 18.73L14.2416 13.5289C14.4553 13.3576 14.7214 13.2642 14.9958 13.2642C15.2702 13.2642 15.5363 13.3576 15.75 13.5289L11.2593 9.04901C10.2866 8.08082 8.97262 7.52881 7.59714 7.51048C6.22165 7.49215 4.89331 8.00895 3.89487 8.95087Z" fill="#64726f"/>
<path d="M28.4402 11.2453L18.6801 1.55469C18.5512 1.42672 18.4174 1.30861 18.2786 1.19541C17.2576 0.371848 15.966 -0.0480241 14.6521 0.0164754C13.3383 0.0809748 12.0947 0.625295 11.1605 1.54484L11.0614 1.64819L10.7689 1.93857L3.75 8.90751C4.75489 7.96192 6.09207 7.4435 7.47643 7.46281C8.86079 7.48212 10.1828 8.03762 11.1605 9.01087L15.6861 13.5043L20.9256 18.7162C21.9234 19.7056 23.2762 20.2609 24.6864 20.26C26.0966 20.2591 27.4486 19.702 28.4451 18.7113C29.4416 17.7206 30.0009 16.3774 30 14.9773C29.9991 13.5771 29.438 12.2347 28.4402 11.2453Z" fill="#64726f"/>
</g>
<defs>
<clipPath id="clip0_1_225">
<rect width="135" height="24" fill="#64726f" transform="translate(0 0.0100098)"/>
</clipPath>
</defs>
</svg>
