<svg width="162" height="24" viewBox="0 0 162 24" fill="none" xmlns="http://www.w3.org/2000/svg">
<g clip-path="url(#clip0_105_563)">
<g clip-path="url(#clip1_105_563)">
<g clip-path="url(#clip2_105_563)">
<path d="M47.2067 20.8729V5.49812C47.2067 4.09243 47.2067 3.09765 46.5309 2.7475C46.3905 2.67325 46.4116 2.46821 46.5639 2.43109L53.1744 0.773964C53.2818 0.745276 53.3884 0.82712 53.3884 0.938495V20.8772C53.3884 21.6745 53.4746 22.3284 54.2867 22.9612C54.4144 23.0599 54.3484 23.2658 54.1835 23.2658H46.4108C46.2458 23.2658 46.1799 23.0599 46.3076 22.9612C47.1196 22.3284 47.2059 21.6745 47.2059 20.8772" fill="#64726f"/>
<path d="M37.1629 20.8729V5.49812C37.1629 4.09243 37.1629 3.09765 36.487 2.7475C36.3466 2.67325 36.3678 2.46821 36.52 2.43109L43.1305 0.773964C43.2379 0.745276 43.3445 0.82712 43.3445 0.938495V20.8772C43.3445 21.6745 43.4308 22.3284 44.2428 22.9612C44.3705 23.0599 44.3046 23.2658 44.1396 23.2658H36.3669C36.202 23.2658 36.136 23.0599 36.2637 22.9612C37.0758 22.3284 37.162 21.6745 37.162 20.8772" fill="#64726f"/>
<path d="M57.638 20.8728V11.8405C57.638 9.94965 58.9237 8.30518 60.7618 7.8445L63.6056 7.13322C63.7131 7.10453 63.8196 7.18637 63.8196 7.29775V20.8762C63.8196 21.6736 63.9059 22.3275 64.718 22.9603C64.8457 23.059 64.7797 23.2682 64.6148 23.2682H56.8421C56.6771 23.2682 56.6111 23.0624 56.7389 22.9603C57.5509 22.3275 57.6372 21.6736 57.6372 20.8762" fill="#64726f"/>
<path d="M66.3293 15.5167C66.3293 9.92938 70.6196 7.07666 75.0993 7.07666C79.579 7.07666 81.9779 9.92938 81.9779 12.664C81.9779 15.1303 79.3481 17.2523 76.5128 17.367C75.4038 17.4126 74.0191 17.3097 72.7047 16.8861C73.6317 19.8131 76.0678 20.4872 78.2688 20.4872C79.4107 20.4872 80.507 20.2155 81.3926 19.7599C81.7098 19.5954 82.0524 19.9447 81.879 20.2611C81.0136 21.8482 78.6976 23.6488 74.9056 23.6488C70.2322 23.6488 66.3293 20.9108 66.3293 15.5167ZM77.148 10.6609C77.148 9.04091 76.4146 8.10013 75.0993 8.10013C73.5539 8.10013 72.28 9.92938 72.28 13.436C72.28 14.2831 72.3587 15.056 72.511 15.7462C75.639 15.553 77.148 12.8563 77.148 10.6609Z" fill="#64726f"/>
<path d="M63.8738 3.02672C63.8738 4.71253 62.4561 6.07687 60.7128 6.07687C58.9694 6.07687 57.5517 4.71169 57.5517 3.02672C57.5517 1.34175 58.9694 -0.0234375 60.7128 -0.0234375C62.4561 -0.0234375 63.8738 1.34175 63.8738 3.02672Z" fill="#717171"/>
<path d="M34.3351 23.0438C33.4241 21.9992 33.3006 19.3558 33.2922 18.3897V13.1888C33.2922 8.24358 29.0798 6.82861 24.9096 6.82861C21.5261 6.82861 18.2619 7.95924 18.2619 10.6272C18.2619 11.7865 19.1729 12.9331 21.1345 12.8926C22.8863 12.8555 23.5122 11.6962 23.574 10.8128C23.64 9.85093 23.0259 9.22149 23.0259 8.74899C23.0259 8.04193 24.1263 7.72552 24.9138 7.72552C26.4474 7.72552 26.9989 9.18099 26.9989 12.2809V13.6537C24.7565 13.6537 16.7284 13.6537 16.7284 19.5406C16.7284 21.9739 18.4226 23.5652 21.6454 23.5652C24.8682 23.5652 26.5624 21.547 27.0201 20.0586C27.4278 22.5747 29.0146 23.3189 31.0058 23.3189H34.2125C34.3605 23.3189 34.435 23.1459 34.336 23.0354L34.3351 23.0438ZM24.518 20.4704C23.6941 20.4704 23.0216 19.9768 23.0216 18.6825C23.0216 15.661 26.2486 14.732 26.9947 14.732V18.2758V18.5508C26.2858 19.6486 25.3004 20.4704 24.518 20.4704Z" fill="#64726f"/>
<path d="M14.9977 18.4438C14.9977 14.2832 7.91271 12.6269 7.91271 9.61729C7.91271 8.53982 8.76196 8.27319 9.80407 8.27319C11.2217 8.27319 12.4415 9.43672 13.5132 11.2862C13.6612 11.541 14.0529 11.4381 14.0529 11.1419V7.63954C14.0529 7.43788 13.8507 7.29866 13.6612 7.36785C13.4836 7.43366 13.2823 7.45813 13.0471 7.45813C12.2351 7.45813 11.0771 7.11304 9.41582 7.11304C6.79024 7.11304 1.9231 7.88591 1.9231 12.0464C1.9231 13.8512 3.3577 15.1582 4.70517 16.153C5.67369 16.8685 6.56016 17.4152 7.49908 18.1712C8.05566 18.6193 8.50482 19.1947 8.81779 19.8731C9.13922 20.5717 9.19251 21.4062 8.59109 21.974C8.08019 22.4549 7.30537 22.611 6.62106 22.5537C6.0814 22.5081 5.38017 22.282 5.35141 21.6331C5.33872 21.3783 5.46307 21.1353 5.59841 20.9218C6.24973 19.8857 5.75912 18.7922 4.64257 18.3568C4.11052 18.151 3.52179 18.1307 2.96098 18.2337C2.3012 18.3568 1.6465 18.669 1.27093 19.2284C0.578167 20.2603 1.20073 21.4441 2.0043 22.1883C2.68861 22.8211 3.57424 23.2 4.46917 23.4295C8.30604 24.4158 14.9909 23.6472 14.9909 18.4429H14.9952L14.9977 18.4438Z" fill="#64726f"/>
<path d="M140.593 22.5958C139.682 21.5512 139.559 18.9078 139.55 17.9417V12.7408C139.55 7.79558 135.338 6.38062 131.168 6.38062C127.784 6.38062 124.52 7.51124 124.52 10.1792C124.52 11.3385 125.431 12.4851 127.393 12.4446C129.144 12.4075 129.77 11.2482 129.832 10.3648C129.898 9.40293 129.284 8.77349 129.284 8.30099C129.284 7.59393 130.385 7.27752 131.172 7.27752C132.706 7.27752 133.257 8.73299 133.257 11.8329V13.2057C131.015 13.2057 122.987 13.2057 122.987 19.0926C122.987 21.5259 124.681 23.1172 127.904 23.1172C131.126 23.1172 132.821 21.099 133.278 19.6106C133.686 22.1267 135.273 22.8709 137.264 22.8709H140.471C140.619 22.8709 140.693 22.6979 140.594 22.5874V22.5958H140.593ZM130.776 20.0266C129.952 20.0266 129.28 19.533 129.28 18.2387C129.28 15.2172 132.507 14.2882 133.253 14.2882V17.832V18.1071C132.544 19.2048 131.559 20.0266 130.776 20.0266Z" fill="#64726f"/>
<path d="M141.805 14.9076C141.805 9.32025 146.095 6.46753 150.575 6.46753C155.054 6.46753 157.453 9.32025 157.453 12.0548C157.453 14.5211 154.823 16.6432 151.988 16.7579C150.879 16.8035 149.494 16.7005 148.18 16.277C149.107 19.2039 151.543 19.8781 153.744 19.8781C154.886 19.8781 155.982 19.6064 156.868 19.1508C157.185 18.9862 157.528 19.3356 157.354 19.652C156.489 21.2391 154.173 23.0396 150.381 23.0396C145.707 23.0396 141.805 20.3017 141.805 14.9076ZM152.619 10.0526C152.619 8.43262 151.886 7.49184 150.57 7.49184C149.025 7.49184 147.751 9.32109 147.751 12.8277C147.751 13.6748 147.83 14.4477 147.982 15.1379C151.11 14.9447 152.618 12.2481 152.618 10.0526" fill="#64726f"/>
<path d="M121.391 22.4355C120.579 21.8027 120.493 21.1488 120.493 20.3514L120.427 11.2744C120.427 9.92607 119.969 8.841 119.051 8.01413C118.135 7.1881 116.858 6.77635 115.23 6.77635C114.212 6.77635 113.223 6.99404 112.271 7.42604C111.315 7.85804 110.622 8.30185 110.189 8.75832C109.756 9.21479 109.526 9.45694 109.501 9.48225C109.171 8.64357 108.586 7.98207 107.745 7.50113C106.904 7.02019 105.874 6.77719 104.65 6.77719C103.199 6.77719 101.995 7.10204 101.04 7.7475C100.087 8.39297 99.3538 9.00975 98.8962 9.53963V6.94594C98.8962 6.83457 98.793 6.75272 98.6822 6.78141L92.0717 8.43854C91.9194 8.47566 91.8941 8.68069 92.0387 8.75494C92.7146 9.10425 92.7146 10.099 92.7146 11.5056V20.3481C92.7146 21.1454 92.6283 21.7993 91.8162 22.4321C91.6885 22.5308 91.7545 22.7367 91.9194 22.7367H99.6921C99.8571 22.7367 99.9231 22.5308 99.7953 22.4321C98.9833 21.7993 98.897 21.1454 98.897 20.3481V10.3825C99.3792 10.029 99.9231 9.70838 100.467 9.48225C101.015 9.25191 101.518 9.14138 101.975 9.14138C102.511 9.14138 102.935 9.31435 103.257 9.65522C103.574 9.9961 103.735 10.5395 103.735 11.2752V20.4223C103.735 20.8703 103.673 21.2526 103.554 21.5774C103.422 21.8736 103.212 22.1571 102.853 22.4363C102.725 22.5351 102.791 22.7409 102.956 22.7409H110.729C110.894 22.7409 110.96 22.5351 110.832 22.4363C110.354 22.0626 110.132 21.6837 110.024 21.2686C110.016 21.2315 110.004 21.1943 109.996 21.1572V21.153C109.975 21.0458 109.958 20.9311 109.95 20.8121V20.8037C109.942 20.6847 109.934 20.5573 109.934 20.4257L109.843 11.2415C109.843 10.8593 109.806 10.5175 109.728 10.2138C110.161 9.88472 110.631 9.62147 111.142 9.43247C111.653 9.24347 112.123 9.14897 112.555 9.14897C113.091 9.14897 113.515 9.32194 113.837 9.66282C114.154 10.0037 114.315 10.5471 114.315 11.2828V20.3599C114.315 20.5489 114.31 20.7303 114.29 20.9066C114.29 20.9311 114.282 20.9556 114.282 20.9851C114.212 21.5116 114.009 21.9841 113.416 22.4448C113.289 22.5435 113.355 22.7494 113.52 22.7494H121.292C121.457 22.7494 121.523 22.5435 121.395 22.4448L121.391 22.4355Z" fill="#64726f"/>
<path d="M158.764 7.5121H159.044C159.065 7.6682 159.126 7.79982 159.394 7.79982C159.568 7.79982 159.691 7.70532 159.691 7.55767C159.691 7.41001 159.617 7.35601 159.366 7.31551C158.991 7.26657 158.813 7.15098 158.813 6.85904C158.813 6.60423 159.032 6.41101 159.361 6.41101C159.691 6.41101 159.901 6.56289 159.934 6.86326H159.666C159.637 6.69873 159.543 6.6287 159.361 6.6287C159.179 6.6287 159.088 6.71476 159.088 6.83457C159.088 6.96198 159.142 7.02357 159.414 7.06492C159.785 7.11385 159.975 7.22101 159.975 7.5332C159.975 7.80489 159.744 8.01835 159.398 8.01835C158.969 8.01835 158.788 7.80489 158.768 7.50873L158.763 7.51295L158.764 7.5121Z" fill="#64726f"/>
<path d="M160.256 6.43127H160.648L161.06 7.50031L161.463 6.43127H161.851V7.99727H161.558V6.81349L161.089 7.99727H160.994L160.516 6.81349V7.99727H160.252V6.43127H160.256Z" fill="#717171"/>
</g>
</g>
</g>
<defs>
<clipPath id="clip0_105_563">
<rect width="162" height="24" fill="#64726f"/>
</clipPath>
<clipPath id="clip1_105_563">
<rect width="162" height="24.0469" fill="#64726f" transform="translate(0 -0.0234375)"/>
</clipPath>
<clipPath id="clip2_105_563">
<rect width="162" height="24.0469" fill="#64726f" transform="translate(0 -0.0234375)"/>
</clipPath>
</defs>
</svg>
