<svg width="109" height="25" viewBox="0 0 109 25" fill="none" xmlns="http://www.w3.org/2000/svg">
<g clip-path="url(#clip0_1_255)">
<path d="M32.6668 7.77606V14.0471C32.6668 15.7244 31.2857 17.0847 29.5826 17.0847C27.8795 17.0847 26.4984 15.7244 26.4984 14.0471V7.77606H24.1723V13.9536C24.1723 16.8962 26.5949 19.2822 29.5826 19.2822C32.5704 19.2822 34.993 16.8962 34.993 13.9536V7.77606H32.6668Z" fill="#64726f"/>
<path d="M10.8414 0.524994V15.1213C10.8414 18.7989 7.81509 21.7795 4.0811 21.7795C3.59748 21.7795 3.12721 21.7283 2.67325 21.6333C4.4045 23.3998 6.83298 24.5 9.52262 24.5C14.7816 24.5 19.0438 20.3008 19.0438 15.1228V0.524994H10.8414Z" fill="#64726f"/>
<path d="M4.08113 19.1613C1.8262 19.1613 0 17.3612 0 15.1404V3.10834H8.16372V15.1404C8.16372 17.3612 6.33607 19.1613 4.08113 19.1613Z" fill="#64726f"/>
<path d="M48.5062 13.3516C48.5062 16.8787 45.8596 19.2369 42.8941 19.2369C41.1836 19.2369 39.7698 18.6524 38.7877 17.6414V22.9349H36.4156V7.7805H38.7877V9.06038C39.7683 8.0493 41.1821 7.4649 42.8941 7.4649C45.8596 7.4649 48.5062 9.84649 48.5062 13.3502M46.2023 13.3502C46.2023 11.0139 44.5823 9.53089 42.5069 9.53089C40.6362 9.53089 38.7892 11.0139 38.7892 13.3502C38.7892 15.6865 40.6362 17.1695 42.5069 17.1695C44.5823 17.1695 46.2023 15.7098 46.2023 13.3502Z" fill="#64726f"/>
<path d="M70.499 7.73533L70.339 9.98251C70.1567 9.96057 69.8836 9.96057 69.6773 9.96057C66.8036 9.96057 65.3887 11.9374 65.3887 14.9926V18.9243H63.0162V7.78064H65.3887V10.1622C66.3007 8.6792 67.7384 7.64624 69.6996 7.64624C69.9738 7.64624 70.2013 7.64624 70.4978 7.73681" fill="#64726f"/>
<path d="M82.6029 18.9229H80.2309V17.643C79.2503 18.6541 77.8349 19.2385 76.1246 19.2385C73.1589 19.2385 70.5138 16.8803 70.5138 13.3533C70.5138 9.8262 73.1589 7.46799 76.1246 7.46799C77.8349 7.46799 79.2503 8.05244 80.2309 9.06352V7.78359H82.6029V18.9229ZM80.2309 13.3518C80.2309 11.0155 78.384 9.53255 76.5132 9.53255C74.4378 9.53255 72.8178 11.0155 72.8178 13.3518C72.8178 15.6881 74.4378 17.1711 76.5132 17.1711C78.384 17.1711 80.2309 15.7115 80.2309 13.3518Z" fill="#64726f"/>
<path d="M105.314 15.7376C104.515 16.9255 103.375 17.2163 102.253 17.2163C100.588 17.2163 99.0583 15.9802 98.8314 13.9142H108.001V13.1048C107.887 9.75744 105.378 7.46643 102.345 7.46643C99.1503 7.46643 96.4817 9.82464 96.4817 13.3751C96.4817 16.9255 99.1725 19.2384 102.253 19.2384C104.759 19.2384 106.767 18.071 107.703 15.7376H105.316H105.314ZM102.343 9.5339C103.893 9.5339 105.194 10.4325 105.559 12.2515H98.8983C99.2628 10.4544 100.859 9.5339 102.343 9.5339Z" fill="#64726f"/>
<path d="M93.2457 0.5V8.73909C92.2194 7.98664 90.9286 7.56293 89.5343 7.56293C86.2172 7.56293 83.5097 9.92988 83.5097 13.4029C83.5097 16.8759 86.2172 19.2647 89.5343 19.2647C92.8514 19.2647 95.4011 17.0059 95.5468 13.6878H95.5542V0.5H93.2457ZM89.5343 17.2338C87.5714 17.2338 85.8103 15.7231 85.8103 13.4014C85.8103 11.0798 87.5697 9.56897 89.5343 9.56897C91.4983 9.56897 93.2354 11.0798 93.2354 13.4014C93.2354 15.7231 91.4525 17.2338 89.5343 17.2338Z" fill="#64726f"/>
<path d="M59.2099 7.7805V9.06038C58.2293 8.0493 56.8139 7.4649 55.1034 7.4649C52.1379 7.4649 49.4928 9.84649 49.4928 13.3502C49.4928 16.8539 52.1394 19.2354 55.1034 19.2354C56.8139 19.2354 58.2293 18.651 59.2099 17.6399V17.9131C59.2099 19.9791 57.8642 21.7426 55.7191 21.7426C53.5739 21.7426 52.7906 20.8616 51.9465 19.5583L50.1233 20.7477C51.0356 22.4104 52.4138 23.8554 55.7191 23.8554C59.2545 23.8554 61.5819 21.2064 61.5819 17.9599V7.7805H59.2099ZM55.4921 17.1709C53.4166 17.1709 51.7966 15.7113 51.7966 13.3516C51.7966 10.992 53.4166 9.53232 55.4921 9.53232C57.363 9.53232 59.2099 11.0153 59.2099 13.3516C59.2099 15.6879 57.3613 17.1709 55.4921 17.1709Z" fill="#64726f"/>
</g>
<defs>
<clipPath id="clip0_1_255">
<rect width="108.631" height="24" fill="#64726f" transform="translate(0 0.5)"/>
</clipPath>
</defs>
</svg>
