<svg width="120" height="25" viewBox="0 0 120 25" fill="none" xmlns="http://www.w3.org/2000/svg">
<path d="M20.626 8.9884C15.2442 8.87829 12.8234 6.93219 12.8234 6.42262C12.8234 5.91305 15.2442 3.99256 20.626 3.8594C20.8961 3.8594 21.1195 3.63919 21.1195 3.34983V0.522865C21.1195 0.236071 20.8727 0.0132939 20.5818 0.0132939C18.6078 0.102917 11.8156 0.676505 10.6494 4.67625C10.626 4.76588 10.4935 4.76588 10.4701 4.67625C9.3039 0.676505 2.48831 0.102917 0.537662 0.0132939C0.246753 -0.00975203 0 0.23351 0 0.522865V3.37288C0 3.63919 0.223377 3.8594 0.493507 3.88245C5.87533 3.99256 8.2961 5.91561 8.2961 6.42518C8.2961 6.93475 5.87533 8.9884 0.493507 8.9884C4.02525e-07 8.9884 0 9.47493 0 9.47493V12.371C0 12.8345 0.493507 12.8576 0.493507 12.8576C5.87533 12.9677 8.2961 14.9138 8.2961 15.4208C8.2961 15.9303 5.87533 17.8508 0.493507 17.984C0.223377 17.984 0 18.2042 0 18.4936V21.3436C0 21.6304 0.246753 21.8531 0.537662 21.8531C2.51169 21.7635 9.3039 21.1899 10.4701 17.1902C10.4935 17.1006 10.626 17.1006 10.6494 17.1902C11.8156 21.1899 18.6312 21.7661 20.5818 21.8531C20.8727 21.8762 21.1195 21.6329 21.1195 21.3436V18.4705C21.1195 18.2042 20.8961 17.984 20.626 17.9609C15.2442 17.8508 12.8234 15.9278 12.8234 15.4182C12.8234 14.9086 15.2442 12.9651 20.626 12.855C20.626 12.855 21.1195 12.878 21.1195 12.3685V9.47493C21.1195 8.9884 20.626 8.9884 20.626 8.9884ZM12.4208 11.5952C11.9273 13.3415 10.6052 13.5182 9.7974 13.2314C8.96883 12.9446 8.09351 12.0151 8.85455 10.3148C9.23636 9.45188 10.4909 8.19204 11.5221 8.56845C12.6442 8.96535 12.6883 10.6887 12.4208 11.5952Z" fill="#64726f"/>
<path d="M95.3013 3.50859V6.2869C95.3013 6.77087 94.7896 6.93987 94.4468 6.56089L92.8026 4.77099C92.1195 3.99255 91.3714 3.86452 90.4545 3.86452H87.6364C87.2104 3.86452 86.974 4.09498 86.974 4.51749V9.42371H89.0883C89.6 9.42371 89.9636 9.25471 90.2416 8.83476L91.4597 7.23435C91.8026 6.75038 92.4 6.91939 92.4 7.50834V12.855C92.4 13.403 91.8026 13.5925 91.4597 13.129L90.2416 11.5286C89.9429 11.1086 89.6 10.9191 89.0883 10.9191H86.974V16.6243C86.974 17.2337 87.2935 17.5077 87.8701 17.5077H90.1974C91.2649 17.5077 92.0987 17.5077 92.8468 16.5398L94.3636 14.6039C94.6831 14.184 95.2182 14.3094 95.2182 14.8344V17.7612C95.2182 18.6446 94.7065 18.9826 93.9377 18.9826H82.5558C82.2779 18.9826 82.0857 18.7932 82.0857 18.5832C82.0857 17.8457 83.3039 17.7843 83.3039 16.8573V4.497C83.3039 3.48554 82.0857 3.46506 82.0857 2.77112C82.0857 2.56115 82.2779 2.37166 82.5558 2.37166H94.0649C95.0026 2.37166 95.3013 2.68662 95.3013 3.50859ZM119.774 20.0556C119.774 22.4139 117.361 23.9913 113.197 23.9913C110.057 23.9913 108.244 22.8953 108.244 21.3385C108.244 20.327 109.099 19.4436 110.636 18.9161C109.226 18.7061 108.587 17.8841 108.587 17.0417C108.587 16.0737 109.397 15.1903 110.722 14.7678C109.418 14.0508 108.566 12.9164 108.566 11.526C108.566 9.18813 110.873 7.59028 113.842 7.59028H117.751C118.691 7.59028 119.096 7.2958 119.501 7.2958C119.714 7.2958 119.886 7.44432 119.886 7.69527C119.886 8.17923 119.244 8.62222 118.475 9.0857C118.283 9.19069 118.242 9.35969 118.39 9.54918C118.795 10.0972 119.031 10.7501 119.031 11.485C119.031 13.7589 116.725 15.4438 113.8 15.4438C113.33 15.4438 112.86 15.3798 112.434 15.3183C111.494 15.1698 111.322 16.2863 112.369 16.3503L115.914 16.6448C118.494 16.8547 119.732 18.2887 119.774 20.0556ZM112.855 13.9714C113.709 14.2864 115.14 14.0764 115.673 12.202C115.951 11.2341 115.886 9.35969 114.691 8.93975C113.579 8.54028 112.234 9.88719 111.829 10.8141C110.997 12.6655 111.958 13.636 112.855 13.9714ZM116.805 20.6676C116.805 19.9736 116.442 19.3616 114.883 19.1952L111.979 18.9647C111.21 19.4077 110.997 20.0607 110.997 20.7956C110.997 21.9735 111.917 22.6905 113.836 22.6905C115.758 22.6879 116.805 21.7814 116.805 20.6676ZM45.2883 14.4349C45.2883 17.3413 42.7039 19.0671 37.5792 19.0671H31.7506C31.4519 19.0671 31.2597 18.8777 31.2597 18.6677C31.2597 17.9942 32.4779 17.8892 32.4779 16.9418L32.4571 4.58407C32.4571 3.63662 31.239 3.59565 31.239 2.85818C31.239 2.64821 31.4312 2.45872 31.7299 2.45872H37.2182C42.1299 2.43823 44.4779 4.03865 44.4779 6.52248C44.4779 8.10241 43.6026 9.40579 41.0623 10.1228C44.1143 10.5811 45.2675 12.2865 45.2883 14.4349ZM36.1065 9.50821H37.2597C39.5013 9.50821 40.7403 8.58125 40.7403 6.8144C40.7195 4.96304 39.8442 3.9311 37.3662 3.9311H36.7688C36.3429 3.9311 36.1065 4.1846 36.1065 4.60455V9.50821ZM41.3584 14.5194C41.3584 12.3505 40.2052 11.0241 37.5143 11.0241H36.1273V16.7293C36.1273 17.2977 36.4468 17.5717 37.0234 17.5717H38.0701C40.4831 17.5717 41.3584 16.3093 41.3584 14.5194ZM56.9065 16.7498C56.2234 18.2657 54.5792 19.3386 52.2312 19.3386C48.6649 19.3386 46.2519 16.8112 46.2519 13.339C46.2519 9.80269 48.6649 7.35982 52.1039 7.35982C55.3922 7.35982 56.9507 9.65417 56.9507 11.759C56.9507 12.6655 56.6519 12.896 55.8623 12.896H49.413C49.4987 15.4438 51.1844 16.7907 53.4493 16.7907C55.4987 16.7907 56.1195 15.6538 56.7169 15.6538C57.0779 15.6564 57.2701 16.0353 56.9065 16.7498ZM49.4519 11.5721H53.1688C53.787 11.5721 53.9584 11.3621 53.9584 10.9396C53.9584 9.65417 53.3169 8.64527 51.9299 8.64527C50.5221 8.64527 49.4961 9.67722 49.4519 11.5721ZM63.1844 11.7821C61.1974 10.9396 60.7065 10.4147 60.7065 9.7822C60.7065 9.06522 61.2831 8.64527 62.0727 8.64527C64.0597 8.64527 64.2078 11.2776 65.852 11.2776C66.5792 11.2776 67.0052 10.7501 67.0052 9.95121C67.0052 8.09985 64.613 7.3419 62.5195 7.36238C59.8935 7.36238 58.1195 8.5198 58.1195 10.7092C58.1195 12.435 59.2078 13.467 61.9636 14.7294C63.8208 15.5923 64.4208 16.0968 64.4208 16.8778C64.4208 17.5717 63.8857 18.0352 62.948 18.0352C60.748 18.0352 60.9403 15.4669 59.3818 15.4669C58.6338 15.4669 58.0571 16.0353 58.0571 16.8343C58.0571 18.5806 60.748 19.3386 62.6493 19.3386C65.3195 19.3386 67.1558 18.0762 67.1558 15.9278C67.1766 14.2659 66.0675 13.024 63.1844 11.7821ZM75.9766 7.59284H72.9455V5.08852C72.9455 4.75051 72.774 4.64552 72.5818 4.62504C72.2831 4.56102 72.0052 4.73002 71.9403 5.0245C71.2987 7.80281 68.2234 7.80281 68.2234 7.80281C67.7974 7.80281 67.561 8.01279 67.561 8.39177C67.561 8.75026 67.7948 8.96023 68.2442 8.96023H68.8857H68.2442H68.8857C69.2494 8.96023 69.5688 9.25471 69.5688 9.6132V16.0968C69.5688 18.3911 70.8935 19.2976 72.8364 19.2976C74.8857 19.2976 76.5948 18.3297 76.5948 17.4437C76.5948 17.1902 76.4234 17.0442 76.2104 17.0442C75.8052 17.0442 75.4 17.4232 74.4597 17.4232C73.4779 17.4232 72.9636 17.0033 72.9636 15.9918V9.10875H75.9948C76.4208 9.10875 76.6571 8.89878 76.6571 8.5198V8.18179C76.6597 7.80281 76.4026 7.59284 75.9766 7.59284ZM107.41 20.076C107.41 22.4344 104.997 24.0118 100.834 24.0118C97.6935 24.0118 95.8805 22.9158 95.8805 21.3589C95.8805 20.3475 96.7351 19.4641 98.2727 18.9366C96.8623 18.7266 96.2234 17.9046 96.2234 17.0622C96.2234 16.0942 97.0338 15.2108 98.3584 14.7883C97.0546 14.0713 96.2026 12.9369 96.2026 11.5465C96.2026 9.20862 98.5091 7.61076 101.478 7.61076H105.387C106.327 7.61076 106.732 7.31629 107.138 7.31629C107.351 7.31629 107.522 7.46481 107.522 7.71575C107.522 8.19972 106.881 8.64271 106.112 9.10619C105.919 9.21118 105.878 9.38018 106.026 9.56967C106.431 10.1176 106.668 10.7706 106.668 11.5055C106.668 13.7794 104.361 15.4643 101.436 15.4643C100.966 15.4643 100.496 15.4003 100.07 15.3388C99.1299 15.1903 98.9584 16.3068 100.005 16.3708L103.551 16.6653C106.106 16.8778 107.366 18.2887 107.41 20.076ZM100.491 13.9919C101.345 14.3069 102.777 14.0969 103.309 12.2225C103.587 11.2546 103.522 9.38018 102.327 8.96023C101.216 8.56077 99.8727 9.90767 99.4649 10.8346C98.6338 12.6655 99.5948 13.6565 100.491 13.9919ZM104.442 20.688C104.442 19.9941 104.078 19.3821 102.519 19.2131L99.6156 18.9826C98.8468 19.4256 98.6338 20.0786 98.6338 20.8135C98.6338 21.9914 99.5532 22.7084 101.473 22.7084C103.395 22.7084 104.442 21.8045 104.442 20.688Z" fill="#64726f"/>
</svg>
