<svg width="95" height="24" viewBox="0 0 95 24" fill="none" xmlns="http://www.w3.org/2000/svg">
<g clip-path="url(#clip0_401_185)">
<path d="M3.65491 0.847046H0.14118V16.6431C0.14118 17.9765 1.22353 19.0588 2.55687 19.0588H10.0235V15.5451H3.65491V0.847046Z" fill="#64726f"/>
<path d="M57.0667 0.0941162H53.5529V19.2627H57.0667V0.0941162Z" fill="#64726f"/>
<path d="M67.9843 1.58423H63.6863L58.1176 8.94109C57.4745 9.80384 57.4745 11.0431 58.1176 11.9058L63.6863 19.2627H67.9843L61.302 10.4156L67.9843 1.58423Z" fill="#64726f"/>
<path d="M90.7922 6.1333L87.2627 15.749L83.4039 6.11762L79.7804 6.10193L85.5216 19.5921L85.2863 20.0784C84.9726 20.6274 84.6431 20.8 84.0314 20.8C83.5294 20.8 82.902 20.5804 82.4 20.2666L81.1137 23.0117C82.0863 23.5921 83.1216 23.9529 84.4863 23.9529C86.4784 23.9529 87.8745 22.9333 88.9098 20.2039L94.2588 6.1333H90.7922Z" fill="#64726f"/>
<path d="M44.9725 16.2195C43.0902 16.2195 41.5686 14.6509 41.5686 12.7058C41.5686 10.7607 43.0902 9.1921 44.9725 9.1921C46.8549 9.1921 48.3765 10.7607 48.3765 12.7058C48.3765 14.6509 46.8549 16.2195 44.9725 16.2195ZM51.702 12.7686L51.7176 12.7843L51.6863 12.8156L51.702 12.7686ZM48.2667 6.76072C47.3255 6.19602 46.2118 5.81955 44.9725 5.81955C41.2235 5.81955 38.1647 8.89406 38.1647 12.7058C38.1647 16.4862 41.1765 19.545 44.8941 19.5921H44.9412H44.9725H45.0823C49.1765 19.498 51.7333 16.4862 51.7647 12.8156V0.109741H48.251V6.76072H48.2667Z" fill="#64726f"/>
<path d="M32.1412 5.81958C29.9922 5.81958 29.051 6.83919 28.6745 7.5137V6.10193H25.1608V19.2627H28.6745V11.7176C28.7059 9.66272 30.4471 9.2235 31.2784 9.2235C32.0314 9.2235 33.5529 9.55291 33.5529 11.7961V19.2627H36.9412V10.6039C36.9412 7.38821 34.5882 5.81958 32.1412 5.81958Z" fill="#64726f"/>
<path d="M70.149 11.2C70.651 9.74115 71.8588 8.70586 73.5216 8.70586C75.1843 8.70586 76.5647 9.70978 76.8941 11.2H70.149ZM73.6471 5.69409C69.8196 5.69409 66.8392 8.79998 66.8392 12.6431C66.8392 16.4706 69.8039 19.5921 73.6471 19.5921C75.8431 19.5921 77.8039 18.8392 79.2471 17.1451L76.9098 15.1215C76.0941 16.0784 74.9176 16.5804 73.6627 16.5804C71.9686 16.5804 70.6667 15.498 70.1804 13.9921H80.1098C80.1098 13.9921 80.1882 13.4902 80.1882 12.6431C80.2039 8.81566 77.4745 5.69409 73.6471 5.69409Z" fill="#64726f"/>
<path d="M13.8196 11.2C14.3216 9.74115 15.5294 8.70586 17.1922 8.70586C18.8549 8.70586 20.2353 9.70978 20.5647 11.2H13.8196ZM17.3176 5.69409C13.4902 5.69409 10.5098 8.79998 10.5098 12.6431C10.5098 16.4706 13.4745 19.5921 17.3176 19.5921C19.5137 19.5921 21.4745 18.8392 22.9176 17.1451L20.5804 15.1215C19.7647 16.0784 18.5882 16.5804 17.3333 16.5804C15.6235 16.5804 14.3373 15.498 13.851 13.9921H23.7804C23.7804 13.9921 23.8588 13.4902 23.8588 12.6431C23.8745 8.81566 21.1451 5.69409 17.3176 5.69409Z" fill="#64726f"/>
</g>
<defs>
<clipPath id="clip0_401_185">
<rect width="94.2745" height="24" fill="#64726f"/>
</clipPath>
</defs>
</svg>
