<svg width="83" height="24" viewBox="0 0 83 24" fill="none" xmlns="http://www.w3.org/2000/svg">
<g clip-path="url(#clip0_105_463)">
<path d="M24.0293 7.13532C19.6603 7.13532 16.0857 10.6778 16.0857 15.0075C16.0857 19.3371 19.6603 22.8796 24.0293 22.8796C28.3982 22.8796 31.9728 19.3371 31.9728 15.0075C31.9728 10.6778 28.3982 7.13532 24.0293 7.13532ZM27.9017 14.9091C27.9017 17.0739 26.2137 18.8451 24.1286 18.8451C22.0434 18.8451 20.3554 17.0739 20.3554 14.9091C20.3554 12.7442 22.0434 10.973 24.1286 10.973C26.2137 10.973 27.9017 12.7442 27.9017 14.9091ZM51.8317 7.43052C51.7324 7.33212 51.6331 7.33212 51.5338 7.33212H48.3564C48.1578 7.33212 47.9592 7.52893 47.9592 7.72573V21.994C47.9592 22.0924 47.9592 22.1908 48.0585 22.2892C48.1578 22.3876 48.2571 22.3876 48.3564 22.3876H51.5338C51.7324 22.3876 51.931 22.1908 51.931 21.994V7.72573C51.931 7.62733 51.931 7.52893 51.8317 7.43052ZM49.9451 5.46249C51.1367 5.46249 52.1296 4.47847 52.1296 3.29765C52.2289 2.11683 51.1367 1.13281 49.9451 1.13281C48.7536 1.13281 47.7606 2.11683 47.7606 3.29765C47.7606 4.57687 48.7536 5.46249 49.9451 5.46249ZM45.6755 1.42802H34.058C33.8594 1.42802 33.6608 1.62482 33.6608 1.82162V21.994C33.6608 22.0924 33.6608 22.1908 33.7601 22.2892C33.8594 22.3876 33.9587 22.3876 34.058 22.3876H37.2354C37.434 22.3876 37.6326 22.1908 37.6326 21.994V13.8266H44.7818C44.8811 13.8266 44.9804 13.8266 45.0797 13.7282C45.179 13.6298 45.179 13.5314 45.179 13.433V10.481C45.179 10.2842 44.9804 10.0874 44.7818 10.0874H37.6326V5.16728H45.6755C45.7747 5.16728 45.874 5.16728 45.9733 5.06888C46.0726 4.97048 46.0726 4.87208 46.0726 4.77368V1.82162C46.0726 1.62482 45.874 1.42802 45.6755 1.42802ZM8.63862 10.1858C5.46119 8.80815 4.46825 8.21774 4.46825 7.03692C4.46825 5.46249 5.95767 4.97048 7.34779 4.97048C8.83721 4.97048 10.4259 5.75769 10.4259 7.92253C10.4259 8.11934 10.5252 8.21774 10.7238 8.21774H14.1991C14.2984 8.11934 14.3977 8.02094 14.3977 7.92253C14.3977 3.98646 11.5182 1.13281 7.34779 1.13281C3.17742 1.13281 0.496472 3.49445 0.496472 7.03692C0.496472 11.2682 3.6739 12.5474 6.75202 13.7282L6.95061 13.8266C9.83015 14.9091 10.8231 15.4011 10.8231 16.7787C10.8231 18.6483 8.83721 18.9435 7.74497 18.9435C5.65978 18.9435 4.07107 17.4675 4.07107 15.4995V15.3027C4.07107 15.1059 3.97178 15.0075 3.77319 15.0075H0.297883C0.198589 15.0075 0 15.1059 0 15.3027V15.5979C0 19.9275 3.17742 22.8796 7.64567 22.8796C11.9153 22.8796 14.7949 20.4196 14.7949 16.8771C14.8942 13.2362 13.0076 11.957 8.63862 10.1858ZM82.4144 21.7972C82.4144 22.3876 82.0172 22.7812 81.4215 22.7812C80.8257 22.7812 80.4285 22.3876 80.4285 21.7972C80.4285 21.2068 80.8257 20.8132 81.4215 20.8132C82.0172 20.8132 82.4144 21.2068 82.4144 21.7972ZM80.6271 21.7972C80.6271 22.2892 80.925 22.5844 81.4215 22.5844C81.9179 22.5844 82.2158 22.2892 82.2158 21.7972C82.2158 21.3052 81.9179 21.01 81.4215 21.01C80.925 21.01 80.6271 21.3052 80.6271 21.7972ZM81.8186 21.6004C81.8186 21.6988 81.7193 21.7972 81.62 21.8956L81.8186 22.2892H81.5208L81.3222 21.8956H81.2229V22.2892H81.0243V21.3052H81.4215C81.62 21.3052 81.8186 21.4036 81.8186 21.6004ZM81.3222 21.502V21.7972H81.4215C81.5208 21.7972 81.62 21.6988 81.62 21.6988C81.62 21.6004 81.5208 21.6004 81.4215 21.6004H81.3222V21.502ZM77.2511 2.01843C78.6412 2.01843 79.7335 3.10085 79.7335 4.47847C79.7335 5.8561 78.6412 6.93852 77.2511 6.93852C75.861 6.93852 74.7687 5.8561 74.7687 4.47847C74.7687 3.10085 75.861 2.01843 77.2511 2.01843ZM77.2511 1.13281C75.3645 1.13281 73.7758 2.70724 73.7758 4.57687C73.7758 6.44651 75.3645 8.02093 77.2511 8.02093C79.1377 8.02093 80.7264 6.44651 80.7264 4.57687C80.7264 2.70724 79.1377 1.13281 77.2511 1.13281Z" fill="#64726f"/>
<path d="M78.9057 14.9741C80.5918 14.0654 81.2154 11.9741 80.2984 10.3031C79.3815 8.63211 77.2712 8.01415 75.5851 8.92287C73.8989 9.83158 73.2754 11.9228 74.1923 13.5938C75.1093 15.2648 77.2195 15.8828 78.9057 14.9741Z" fill="#64726f"/>
<path d="M78.9007 22.3546C80.5868 21.4459 81.2104 19.3546 80.2934 17.6836C79.3765 16.0126 77.2662 15.3946 75.5801 16.3034C73.8939 17.2121 73.2704 19.3033 74.1873 20.9743C75.1043 22.6453 77.2145 23.2633 78.9007 22.3546Z" fill="#64726f"/>
<path d="M69.804 9.49708C70.4991 9.49708 71.0948 9.79228 71.5913 10.1859C72.0878 10.6779 72.2864 11.2683 72.2864 11.9571C72.2864 13.3347 71.1941 14.4172 69.804 14.4172C69.1089 14.4172 68.5132 14.122 68.0167 13.7284C67.5202 13.2363 67.3216 12.6459 67.3216 11.9571C67.2224 10.5795 68.4139 9.49708 69.804 9.49708ZM69.804 8.51306C67.9174 8.51306 66.3287 10.0875 66.3287 11.9571C66.3287 13.8268 67.9174 15.4012 69.804 15.4012C71.6906 15.4012 73.2793 13.8268 73.2793 11.9571C73.2793 10.0875 71.6906 8.51306 69.804 8.51306Z" fill="#64726f"/>
<path d="M65.5113 13.3247C66.2886 11.5855 65.4961 9.5512 63.7412 8.78089C61.9863 8.01057 59.9335 8.79595 59.1562 10.5351C58.3789 12.2742 59.1714 14.3085 60.9263 15.0789C62.6813 15.8492 64.734 15.0638 65.5113 13.3247Z" fill="#64726f"/>
<path d="M72.9734 5.94746C73.7507 4.20832 72.9582 2.174 71.2033 1.40369C69.4484 0.63337 67.3956 1.41876 66.6183 3.15789C65.841 4.89703 66.6335 6.93135 68.3884 7.70167C70.1433 8.47198 72.1961 7.6866 72.9734 5.94746Z" fill="#64726f"/>
<path d="M65.5204 5.93855C66.2977 4.19941 65.5052 2.1651 63.7503 1.39478C61.9954 0.624462 59.9426 1.40984 59.1653 3.14898C58.388 4.88812 59.1805 6.92244 60.9354 7.69276C62.6904 8.46307 64.7431 7.67769 65.5204 5.93855Z" fill="#64726f"/>
<path d="M72.9553 20.7197C73.7326 18.9805 72.9401 16.9462 71.1851 16.1759C69.4302 15.4056 67.3775 16.191 66.6002 17.9301C65.8228 19.6693 66.6154 21.7036 68.3703 22.4739C70.1252 23.2442 72.178 22.4588 72.9553 20.7197Z" fill="#64726f"/>
<path d="M62.3569 16.8772C63.052 16.8772 63.6477 17.1724 64.1442 17.566C64.6407 18.058 64.8393 18.6484 64.8393 19.3372C64.8393 20.7149 63.747 21.7973 62.3569 21.7973C60.9668 21.7973 59.8746 20.7149 59.8746 19.3372C59.7753 17.9596 60.9668 16.8772 62.3569 16.8772ZM62.3569 15.8932C60.4703 15.8932 58.8816 17.4676 58.8816 19.3372C58.8816 21.2069 60.4703 22.7813 62.3569 22.7813C64.2435 22.7813 65.8322 21.2069 65.8322 19.3372C65.8322 17.4676 64.2435 15.8932 62.3569 15.8932Z" fill="#64726f"/>
</g>
<defs>
<clipPath id="clip0_105_463">
<rect width="82.5879" height="24" fill="#64726f"/>
</clipPath>
</defs>
</svg>
