<svg xmlns="http://www.w3.org/2000/svg" width="144" height="24" viewBox="0 0 144 24" fill="none">
  <g clip-path="url(#clip0_104_16)">
    <path fill-rule="evenodd" clip-rule="evenodd" d="M5.61864 11.9841C6.38536 11.9841 7.0802 12.4394 7.36772 13.1582C7.84692 14.3801 8.80532 15.3625 10.0273 15.8177C10.7461 16.1053 11.2013 16.8001 11.2013 17.5668V21.3046C11.2013 22.3349 10.3627 23.1735 9.33245 23.1495C8.2782 23.2214 7.41564 22.3349 7.51148 21.3046V18.3096L3.19867 22.6224C2.47987 23.3412 1.30582 23.3412 0.587021 22.6224V22.5984C-0.131781 21.8796 -0.131781 20.7056 0.587021 19.9868L4.89983 15.674H1.88087C0.826622 15.7458 -0.0359402 14.8833 0.03594 13.853C0.0119799 12.8227 0.850582 11.9841 1.88087 11.9841H5.61864ZM21.3125 11.9841C22.3428 11.9841 23.1814 12.8227 23.1574 13.853C23.2293 14.9073 22.3428 15.7458 21.3125 15.674H18.3175L22.6303 19.9868C23.3491 20.7056 23.3491 21.8796 22.6303 22.5984C21.9115 23.3172 20.7374 23.3172 20.0186 22.5984L15.7058 18.2856V21.2806C15.8017 22.3349 14.9391 23.1974 13.8849 23.1256C12.8546 23.1495 12.016 22.3109 12.016 21.2806V17.5429C12.016 16.7761 12.4712 16.0813 13.19 15.7938C14.412 15.3146 15.3943 14.3562 15.8496 13.1342C16.1371 12.4154 16.8319 11.9602 17.5987 11.9602H21.3125V11.9841ZM61.2779 0.938528V6.78479H65.0636V9.87564H61.2779V16.7282C61.2779 18.7169 61.7571 19.2919 63.1228 19.2919C63.7937 19.2919 64.4406 19.2201 65.0875 19.0523V22.263C64.0093 22.5265 62.9311 22.6703 61.805 22.6703V22.6463C58.3547 22.6463 57.3005 21.4004 57.3005 17.7585V9.87564H54.593V6.78479H57.2526V1.99278L61.2779 0.938528ZM130.834 6.44934C131.792 6.4733 132.751 6.56915 133.685 6.73687L133.565 9.8996C132.631 9.63604 131.649 9.49228 130.69 9.49228C129.133 9.49228 128.366 10.1392 128.366 11.0976C128.366 13.6374 134.739 12.5112 134.739 17.5429C134.739 20.6097 132.056 22.6703 127.791 22.6703L127.815 22.6463C126.713 22.6463 125.635 22.5505 124.532 22.3588L124.628 19.0763C125.73 19.3638 126.857 19.5315 127.983 19.5315C129.516 19.5315 130.522 18.8846 130.522 17.8783C130.522 15.1229 124.221 16.6803 124.221 11.4091C124.221 8.72555 126.449 6.44934 130.834 6.44934ZM97.3617 6.44934C101.89 6.44934 103.903 9.54019 103.903 13.3978C103.903 13.9968 103.855 14.5958 103.783 15.2187H94.1511C94.1271 18.1419 95.5647 19.5315 98.4399 19.5315C99.9973 19.5315 101.555 19.1961 102.992 18.5731L103.376 21.664C101.603 22.3349 99.7098 22.6703 97.817 22.6703C92.8812 22.6703 90.1258 20.2024 90.1258 14.7156C90.0779 9.94751 92.6895 6.44934 97.3617 6.44934ZM39.7138 1.05833C41.2233 1.05833 42.7328 1.25002 44.1943 1.63338L43.7631 5.32323C42.3734 4.9159 40.9597 4.6763 39.4982 4.6763C35.5687 4.6763 33.604 7.64735 33.604 11.7445C33.604 16.3209 35.5208 18.9325 39.7617 18.9325C41.1754 18.8846 42.5651 18.5971 43.8589 18.046L44.3381 21.664C42.589 22.2869 40.7441 22.5984 38.8992 22.5984V22.6224C31.5195 22.6224 29.1474 17.7106 29.1474 12.4633C29.1235 5.7545 32.6456 1.05833 39.7138 1.05833ZM116.146 6.42539C119.645 6.42539 120.771 8.67763 120.771 11.4091V22.3109L116.793 22.3349V12.3914C116.793 10.7622 116.362 9.7798 114.877 9.7798C112.84 9.7798 111.259 12.1039 111.259 14.8114V22.3109H107.257V6.78479H111.043C111.043 7.71923 110.971 8.62972 110.827 9.5402H110.851C111.858 7.55151 113.918 6.32955 116.146 6.42539ZM87.4183 6.78479V9.63604L81.2845 18.6929C81.8116 18.669 82.9857 18.669 84.0399 18.669H87.5621V22.3109L76.3727 22.3349V19.4836L82.6263 10.283C82.0752 10.3069 80.9491 10.3548 79.5354 10.3548H76.5404V6.78479H87.4183ZM72.7787 6.78479V22.3349H68.7774V6.78479H72.7787ZM51.7897 6.78479V22.3349H47.7883V6.78479H51.7897ZM97.2419 9.39644C95.5887 9.39644 94.4386 10.6184 94.223 12.4873H99.9494C99.9973 10.5226 98.9431 9.39644 97.2419 9.39644ZM9.30849 0.0280488C10.3388 0.00408873 11.1774 0.842694 11.1774 1.87298V5.61074C11.1774 6.37746 10.7221 7.07231 10.0033 7.35983C8.78136 7.83903 7.799 8.79744 7.3198 10.0194C7.03228 10.7382 6.33744 11.1934 5.57071 11.1934H1.8569C0.826622 11.1934 -0.0119802 10.3548 0.0119799 9.32455C-0.0599004 8.27031 0.826622 7.43171 1.8569 7.50359H4.85191L0.539101 3.19078C-0.1797 2.47198 -0.1797 1.29793 0.539101 0.579127H0.563062C1.28186 -0.139675 2.45591 -0.139675 3.17471 0.579127L7.48752 4.89194L7.46356 1.89693C7.39168 0.842688 8.25424 -0.0438314 9.30849 0.0280488ZM22.6303 0.555173C23.3491 1.27398 23.3491 2.44802 22.6303 3.16682L18.3175 7.47963H21.3125C22.3667 7.40775 23.2293 8.24635 23.1574 9.3006C23.1814 10.3309 22.3428 11.1934 21.3125 11.1695H17.5747C16.808 11.1695 16.1131 10.7142 15.8256 9.99544C15.3464 8.77347 14.388 7.79111 13.1661 7.33587C12.4473 7.04835 11.992 6.35351 11.992 5.58679V1.84902C11.992 0.818732 12.8306 -0.0198728 13.8609 0.00408727C14.9151 -0.0677929 15.7777 0.818732 15.6819 1.84902V4.84402L19.9947 0.531212C20.7374 -0.16363 21.9115 -0.163629 22.6303 0.555173ZM140.945 6.56914L141.592 8.53387C141.64 8.67763 141.688 8.82139 141.736 8.98911L141.784 9.22871C141.832 9.01307 141.904 8.79744 141.975 8.5818L142.622 6.61707H143.269L143.772 9.97148L143.197 9.92355L142.934 8.15051C142.886 7.83903 142.862 7.62339 142.838 7.43171V7.33587C142.79 7.55151 142.742 7.76715 142.67 7.98279L142.023 9.94751H141.472L140.873 8.15051C140.801 7.95883 140.753 7.76715 140.705 7.55151L140.658 7.35983C140.658 7.64735 140.61 7.91091 140.586 8.22239L140.37 9.94751H139.819L140.322 6.59311H140.945V6.56914ZM139.699 6.54519V7.00043H138.765V9.8996H138.214V7.00043H137.303V6.54519H139.699ZM70.8619 0.818728C72.1318 0.818728 73.1621 1.84901 73.186 3.1189C73.1621 4.38878 72.1797 5.41907 70.9098 5.46699H70.79C67.6752 5.41907 67.7471 0.770808 70.8619 0.818728ZM49.8729 0.818728C51.1428 0.818728 52.173 1.84901 52.197 3.1189C52.173 4.4367 51.0948 5.49095 49.801 5.46699C46.6862 5.41907 46.782 0.770808 49.8729 0.818728Z" fill="#64726f"/>
  </g>
  <defs>
    <clipPath id="clip0_104_16">
      <rect width="144" height="24" fill="#64726f"/>
    </clipPath>
  </defs>
</svg>
