<svg width="165" height="24" viewBox="0 0 165 24" fill="none" xmlns="http://www.w3.org/2000/svg">
<g clip-path="url(#clip0_1_363)">
<path d="M67.7407 23.3326H85.4142C85.5834 23.3326 85.7385 23.241 85.8231 23.0965L87.7195 19.8148C87.7477 19.7655 87.8217 19.7655 87.8499 19.8148L89.7462 23.0965C89.8308 23.2445 89.9859 23.3326 90.1551 23.3326H93.1089C93.4121 23.3326 93.5989 23.0048 93.4473 22.744L88.1213 13.5195C87.9697 13.2586 87.5926 13.2586 87.441 13.5195L83.7787 19.8642C83.747 19.9171 83.6941 19.9488 83.6306 19.9488H73.0491C72.9892 19.9488 72.9539 19.8853 72.9821 19.836L80.3525 7.07255C80.3807 7.0232 80.4548 7.0232 80.483 7.07255L82.0903 9.85364C82.122 9.90652 82.122 9.96996 82.0903 10.0228L78.4033 16.4063C78.2517 16.6672 78.4421 16.995 78.7417 16.995H81.6955C81.8647 16.995 82.0198 16.9033 82.1044 16.7588L84.0889 13.3221L85.9077 10.1815C85.9923 10.0334 85.9923 9.85364 85.9077 9.70912L80.7614 0.780711C80.6099 0.519874 80.2327 0.519874 80.0811 0.780711L67.3988 22.744C67.2507 23.0083 67.4375 23.3326 67.7407 23.3326Z" fill="#64726f"/>
<path d="M46.44 23.6141C46.5915 23.8785 46.9757 23.8785 47.1273 23.6141L59.8062 1.66142C59.9577 1.39705 59.7674 1.06572 59.4607 1.06572H56.3271C56.1333 1.06572 55.957 1.16794 55.8619 1.33713L46.8524 17.0368C46.8242 17.0861 46.7502 17.0861 46.722 17.0368L37.709 1.33361C37.6138 1.16794 37.434 1.06219 37.2437 1.06219H34.1101C33.8034 1.06219 33.6131 1.39353 33.7647 1.65789L46.44 23.6141Z" fill="#64726f"/>
<path d="M107.247 23.3327H110.063C110.293 23.3327 110.479 23.1459 110.479 22.9167V8.2781C110.479 8.22875 110.539 8.20055 110.578 8.2358L127.881 23.7486C128.139 23.9812 128.551 23.798 128.551 23.449V1.48221C128.551 1.2531 128.364 1.06628 128.135 1.06628H125.319C125.09 1.06628 124.903 1.2531 124.903 1.48221V16.0997C124.903 16.1491 124.843 16.1773 124.804 16.142L107.497 0.636249C107.24 0.40361 106.828 0.586901 106.828 0.93586V22.9167C106.835 23.1459 107.018 23.3327 107.247 23.3327Z" fill="#64726f"/>
<path d="M0.3986 23.3326H3.53218C3.72605 23.3326 3.90229 23.2304 3.99746 23.0612L6.63756 18.4613C6.66576 18.4084 6.72216 18.3767 6.78208 18.3767H19.3622C19.4221 18.3767 19.4785 18.4084 19.5067 18.4613L22.1468 23.0612C22.242 23.2268 22.4218 23.3326 22.6121 23.3326H25.7457C26.0524 23.3326 26.2427 23.0013 26.0911 22.7369L13.4193 0.78421C13.2678 0.519847 12.8836 0.519847 12.732 0.78421L0.0531661 22.7369C-0.0984019 23.0013 0.0919393 23.3326 0.3986 23.3326ZM8.66082 14.9435L13.0105 7.36156C13.0387 7.31221 13.1127 7.31221 13.1409 7.36156L17.4905 14.9435C17.5187 14.9928 17.4835 15.0563 17.4271 15.0563H8.72427C8.66787 15.0563 8.63262 14.9928 8.66082 14.9435Z" fill="#64726f"/>
<path d="M142.213 4.39385H149.457C149.499 4.39385 149.531 4.42558 149.531 4.46787V22.9345C149.531 23.153 149.707 23.3328 149.929 23.3328H152.707C152.925 23.3328 153.105 23.1566 153.105 22.9345V4.46787C153.105 4.42558 153.137 4.39385 153.179 4.39385H160.426C160.645 4.39385 160.825 4.21761 160.825 3.99555V1.46471C160.825 1.24617 160.648 1.06641 160.426 1.06641H142.213C141.995 1.06641 141.815 1.24265 141.815 1.46471V3.99555C141.819 4.21761 141.995 4.39385 142.213 4.39385Z" fill="#64726f"/>
<path d="M162.802 4.08651C162.509 4.08651 162.245 4.02306 162.016 3.89616C161.787 3.76927 161.607 3.59303 161.473 3.36391C161.339 3.13832 161.272 2.87396 161.272 2.57435C161.272 2.27121 161.339 2.00685 161.473 1.78126C161.607 1.55567 161.787 1.37943 162.016 1.25254C162.245 1.12564 162.506 1.06219 162.802 1.06219C163.095 1.06219 163.359 1.12564 163.588 1.25254C163.817 1.37943 163.997 1.55567 164.127 1.78126C164.258 2.00685 164.325 2.27121 164.325 2.57435C164.325 2.87396 164.258 3.1348 164.127 3.36391C163.997 3.5895 163.817 3.76927 163.588 3.89616C163.359 4.02306 163.098 4.08651 162.802 4.08651ZM162.802 3.76575C163.144 3.76575 163.426 3.65648 163.644 3.43794C163.863 3.2194 163.972 2.93388 163.972 2.57788C163.972 2.22187 163.863 1.93283 163.644 1.71781C163.426 1.49927 163.147 1.39 162.802 1.39C162.453 1.39 162.171 1.49927 161.952 1.71781C161.734 1.93635 161.625 2.22187 161.625 2.57788C161.625 2.93388 161.734 3.2194 161.952 3.43794C162.171 3.65648 162.457 3.76575 162.802 3.76575ZM162.273 3.25112V1.78831H162.883C163.031 1.78831 163.147 1.83061 163.239 1.91168C163.331 1.99275 163.376 2.10555 163.376 2.25006C163.376 2.36286 163.352 2.45451 163.299 2.525C163.246 2.5955 163.183 2.64837 163.102 2.68362L163.468 3.25112H163.109L162.788 2.71534H162.573V3.25112H162.273ZM162.576 2.48975H162.784C162.869 2.48975 162.939 2.47213 162.992 2.44041C163.045 2.40868 163.073 2.34524 163.073 2.25711C163.073 2.18309 163.049 2.1267 162.999 2.09145C162.95 2.0562 162.897 2.03857 162.841 2.03857H162.58V2.48975H162.576Z" fill="#64726f"/>
</g>
<defs>
<clipPath id="clip0_1_363">
<rect width="164.571" height="24" fill="#64726f"/>
</clipPath>
</defs>
</svg>
