<svg xmlns="http://www.w3.org/2000/svg" style="display: none;">
  <symbol id="icon-account-balance" viewBox="0 0 24 24">
    <path d="M4 10v7h3v-7H4m6 0v7h3v-7h-3M2 22h19v-3H2v3m14-12v7h3v-7h-3M11.5 1L2 6v2h19V6l-9.5-5z"/>
  </symbol>
  <symbol id="icon-credit-card" viewBox="0 0 24 24">
    <path d="M20 4H4c-1.11 0-1.99.89-1.99 2L2 18c0 1.11.89 2 2 2h16c1.11 0 2-.89 2-2V6c0-1.11-.89-2-2-2zm0 14H4v-6h16v6zm0-10H4V6h16v2z"/>
  </symbol>
  <symbol id="icon-home" viewBox="0 0 24 24">
    <path d="M10 20v-6h4v6h5v-8h3L12 3 2 12h3v8z"/>
  </symbol>
  <symbol id="icon-shopping-cart" viewBox="0 0 24 24">
    <path d="M7 18c-1.1 0-1.99.9-1.99 2S5.9 22 7 22s2-.9 2-2-.9-2-2-2zM1 2v2h2l3.6 7.59-1.35 2.45c-.16.28-.25.61-.25.96 0 1.1.9 2 2 2h12v-2H7.42c-.14 0-.25-.11-.25-.25l.03-.12.9-1.63h7.45c.75 0 1.41-.41 1.75-1.03l3.58-6.49c.08-.14.12-.31.12-.48 0-.55-.45-1-1-1H5.21l-.94-2H1zm16 16c-1.1 0-1.99.9-1.99 2s.89 2 1.99 2 2-.9 2-2-.9-2-2-2z"/>
  </symbol>
  <symbol id="icon-arrow-forward" viewBox="0 0 24 24">
    <path d="M12 4l-1.41 1.41L16.17 11H4v2h12.17l-5.58 5.59L12 20l8-8z"/>
  </symbol>
</svg>